<?xml version="1.0"?>
<svg xmlns:rdf="http://www.w3.org/1999/02/22-rdf-syntax-ns#" xmlns="http://www.w3.org/2000/svg" xmlns:cc="http://web.resource.org/cc/" xmlns:dc="http://purl.org/dc/elements/1.1/" xmlns:sodipodi="http://inkscape.sourceforge.net/DTD/sodipodi-0.dtd" id="svg3941" sodipodi:docname="jewguevara.svg" sodipodi:version="0.32" height="460pt" width="450pt" version="1.0" sodipodi:docbase="C:\foo\wikipedia\transfer">
 <sodipodi:namedview id="base" bordercolor="#666666" pagecolor="#ffffff" borderopacity="1.0"/>
 <path id="path3950" d="m317.09 558.64c0.82-0.72 1.5-1.96 1.5-2.75 0-0.89 2.4-2.21 6.28-3.45 5.95-1.9 6.52-1.93 10.68-0.38 2.41 0.89 5.32 1.38 6.46 1.08s2.07-0.15 2.06 0.33c-0.04 2.47-2.37 3.39-11.02 4.34-5.21 0.57-11.26 1.28-13.46 1.58-3.36 0.46-3.76 0.34-2.5-0.75zm16.45-3.74c1.09-1.76-1.35-2.11-4.65-0.67l-3.3 1.44 3.69 0.08c2.03 0.05 3.95-0.33 4.26-0.85zm-33.45 3.17c0-1.37 1.95-2.04 8.23-2.82 5-0.62 5.18-0.57 3.59 1.1-1.88 1.97-11.82 3.42-11.82 1.72zm158.5-1.18c-2.75-1.03-11.23-4.42-18.84-7.54-7.61-3.13-14.09-5.42-14.41-5.11-0.31 0.32 4.34 2.89 10.34 5.72 10.55 4.98 12.61 7.11 4.73 4.93-2.1-0.58-7.2-2.75-11.32-4.81-5.59-2.79-7.59-4.32-7.82-5.99-0.35-2.44-0.96-2.66-11.18-3.94-5.57-0.7-6.5-1.1-6.5-2.82 0-2.96-1.18-4.27-4.52-5-2.66-0.58-4.38-3.5-2.06-3.5 0.52 0 1.64-0.7 2.5-1.57 1.43-1.43 1.43-1.71-0.01-3.16-0.88-0.87-3.32-2.75-5.43-4.18-2.1-1.42-4.79-3.82-5.98-5.34-2.54-3.24-4-3.52-4-0.75 0 1.1-0.57 2.06-1.25 2.12-0.69 0.07 0.09 0.41 1.73 0.76 1.71 0.37 3.14 1.39 3.33 2.38 0.26 1.38-0.37 1.74-3.09 1.74-1.88 0-4.86 0.5-6.61 1.12-2.95 1.02-3.06 1.21-1.4 2.46 1.67 1.27 1.64 1.36-0.51 1.39-1.27 0.02-3.65-0.66-5.31-1.52-1.82-0.94-4.85-1.43-7.7-1.25l-4.69 0.3 6 3.81c4.46 2.83 6.7 3.66 8.75 3.27 3.47-0.66 3.83 1.97 0.47 3.51-2.37 1.07-7.72-0.21-7.72-1.85 0-1.83-6.07-4.23-10.66-4.22-9.12 0.03-9 2.41 0.31 5.94 2.62 1 4.93 2.29 5.12 2.87s-1.59 1.61-3.96 2.29-4.81 1.61-5.42 2.06c-1.2 0.9-10.27 0-11.89-1.18-1.75-1.26-9.5-2.1-9.5-1.02 0 0.55 1.79 1.29 3.98 1.64 4.11 0.65 4.59 2.32 0.71 2.46-1.21 0.05-1.63 0.31-0.94 0.59 2.37 0.95 1.24 2.25-2.5 2.86-2.07 0.33-7.07 1.96-11.13 3.6-7.95 3.23-17.97 5.05-16.73 3.05 0.39-0.63 3.27-1.9 6.41-2.82 3.13-0.91 5.12-1.86 4.41-2.11-0.7-0.24-2.99 0.25-5.07 1.08-4.51 1.81-7.92 0.62-4.89-1.7 2.33-1.79 2.21-3.86-0.32-5.44-1.85-1.15-2.51-0.9-6.07 2.32-4.06 3.67-7.1 4.23-7.64 1.42-0.16-0.85 0.73-2.11 1.99-2.8s3.13-2.39 4.15-3.78c1.55-2.1 1.67-2.97 0.72-5.06-0.98-2.14-0.92-2.44 0.38-1.94 0.95 0.37 1.54 0.03 1.54-0.88 0-0.8-0.47-1.47-1.05-1.47-1.74 0-5.95 4.79-5.95 6.77 0 1.02-0.68 2.73-1.5 3.79-1.48 1.91-1.54 1.91-3.42-0.31-1.31-1.54-3.01-2.25-5.44-2.25-1.94 0-3.81-0.45-4.15-1s-1.78-0.71-3.21-0.35c-1.9 0.47-2.96 0.15-3.95-1.21-1.32-1.8-1.45-1.8-4.45-0.03-2.77 1.64-3.24 1.67-4.62 0.29-1.19-1.19-2.05-1.3-3.87-0.47-1.97 0.9-2.65 0.69-4.38-1.33-1.12-1.32-2.31-3.63-2.65-5.15-0.7-3.13-1.1-3.26-3.81-1.21-1.06 0.8-2.98 1.46-4.25 1.46-2.23 0-2.3-0.21-1.68-5.75 0.36-3.16 1.04-6.5 1.51-7.43 1.39-2.7 1.04-6.82-0.57-6.82-0.94 0-1.55 1.3-1.75 3.75-0.22 2.61-0.84 3.84-2.06 4.07-1.21 0.23-1.75-0.31-1.75-1.74 0-2.5-0.36-2.54-3.53-0.47-2.34 1.54-5.73 1.32-5.28-0.33 0.42-1.58-1.34-10.28-2.09-10.28-0.42 0-1.37 1.13-2.1 2.5-1.42 2.64-4.47 3.37-5.26 1.25-0.25-0.68-0.38-3.89-0.28-7.12 0.15-4.74-0.04-5.56-1-4.25-1.83 2.5-4.46 2.03-4.46-0.79 0-3.43 0.99-5.59 2.57-5.59 2.92 0 4.67-8.48 2.47-11.96-0.74-1.17-1.17-0.86-2.09 1.5-0.64 1.63-1.4 4.65-1.69 6.71-0.3 2.12-1.09 3.75-1.81 3.75-0.71 0-1.96 0.26-2.78 0.58-0.94 0.36-1.74-0.19-2.15-1.5-0.36-1.14-1.03-2.08-1.48-2.08-2.32 0-1.62 4.16 2.32 13.83 2.39 5.87 4.58 12.47 4.87 14.67 0.28 2.2 1.31 5.8 2.27 8 2.11 4.82 2.67 11.89 1.11 14.02-0.84 1.14-3.49 1.65-10.12 1.92-15.1 0.63-38.14 3.12-51.99 5.62-10.03 1.81-14.33 2.22-16.1 1.55-2.35-0.91-1.53-1.43 4.69-3 9.13-2.31 23.74-4.54 41.41-6.34 5.23-0.53 5.62-0.71 3.09-1.39-4.08-1.1-25.43 1.67-40.91 5.32-6.39 1.5-9.12 1.77-9.91 0.97-0.8-0.79-0.3-1.4 1.81-2.2 4.05-1.55 17.85-4.68 24.17-5.48 2.88-0.37 5.25-1.08 5.25-1.58 0-1.48-7.32-1.05-21.24 1.25-12.1 1.99-13.16 2.03-14.28 0.5-0.66-0.91-1.73-1.66-2.38-1.66-1.99 0-2.33-2.71-0.67-5.25 1.48-2.26 1.45-2.54-0.45-4.26-2-1.81-2.11-1.75-6.76 3.27-5.31 5.74-12.22 9.27-12.22 6.24 0-0.55 0.58-1 1.29-1 1.69 0 8.71-7.18 8.71-8.92 0-1.91-13.17-0.51-18.91 2.01-4.755 2.09-6.634 1.79-3.521-0.56 1.076-0.82 1.378-1.48 0.686-1.49-0.683-0.02-3.305 1.54-5.827 3.46-4.324 3.3-6.432 4.26-6.432 2.91 0-0.32 1.006-1.4 2.236-2.4l2.237-1.81-3.487-1.51-3.486-1.52 3.382-0.08c3.695-0.09 10.138-3.55 10.085-5.42-0.019-0.64-0.876-2.18-1.905-3.41l-1.872-2.24-4.345 1.97c-7.951 3.61-16.851 2.11-19.759-3.32-0.738-1.38-2.522-2.81-3.964-3.16-3.076-0.77-7.295-4.42-6.531-5.65 0.292-0.48 1.446-0.37 2.566 0.23 2.374 1.27 11.833 0.48 19.389-1.62 7.663-2.13 10.802-6.25 11.874-15.58l0.645-5.61-5.673 2.86c-12.395 6.25-26.225 1.3-35.821-12.82-3.422-5.03-3.426-7.47-0.007-4.25l2.565 2.4-1.065-2.8c-0.585-1.54-1.045-4-1.022-5.48l0.042-2.69 1.708 3.14c4.16 7.64 11.214 13.57 18.453 15.51 3.889 1.04 5.192 0.96 9.156-0.55 4.253-1.63 8.234-5.6 5.611-5.6-0.6 0-0.372-1.04 0.524-2.41 1.468-2.24 1.452-2.44-0.213-2.76-1.473-0.29-1.126-0.96 1.941-3.75 2.055-1.87 3.736-3.84 3.736-4.39s-0.823-0.25-1.829 0.66-2.118 1.65-2.471 1.65-2.616 1.4-5.028 3.1c-2.938 2.07-6.137 3.31-9.687 3.75-4.786 0.59-5.131 0.79-3.563 2.09 0.955 0.79 3.614 1.56 5.907 1.7 2.294 0.14 4.396 0.29 4.671 0.34s-0.374 0.75-1.441 1.56c-5.595 4.23-15.927-1.56-21.454-12.02-3.279-6.21-2.527-6.98 2.645-2.72 6.298 5.19 7.659 5.55 13.656 3.61 7.485-2.42 11.231-6.47 13.723-14.84 3.475-11.67 0.934-20.1-7.554-25.07-5.366-3.15-7.632-3.13-13.135 0.09-7.562 4.43-15.864 6.4-26.94 6.38-10.907-0.01-14.42-1.09-22.141-6.77-5.331-3.93-9.6739-12.37-8.7463-17.01 0.98-4.9 2.0723-4.68 2.6603 0.54 0.898 7.97 6.623 10.51 18.812 8.33 18.001-3.22 31.244-23.63 24.05-37.07-1.703-3.18-2.351-3.54-7.448-4.1-6.484-0.71-15.95-6.04-15.023-8.45 0.664-1.73 0.86-1.75 3.195-0.29 1.469 0.92 2.938 0.64 7.412-1.41 9.774-4.48 17.88-13.74 20.105-22.99 0.586-2.43 0.379-2.75-1.798-2.75-3.2 0-4.203-1.66-1.517-2.51 2.237-0.71 1.785-1.95-0.718-1.97-1.103-0.01-1.601-1.34-1.825-4.88-0.202-3.18-0.986-5.55-2.263-6.82-2.704-2.71-8.963-4.02-12.986-2.72-1.776 0.58-3.716 0.75-4.31 0.38-1.833-1.13-6.976 1.66-8.506 4.62-2.089 4.03-1.808 7.36 1.185 14.03 3.038 6.77 7.076 9.87 12.852 9.87 3.224 0 3.579 0.22 2.51 1.5-1.887 2.28-7.233 1.81-12.9-1.13-6.343-3.29-6.369-3.33-9.047-12.1l-2.21-7.23 2.32-4.65c1.275-2.55 3.844-5.68 5.708-6.94l3.388-2.31-3.879-0.6c-8.034-1.24-14.033-3.56-16.876-6.53-2.1231-2.22-2.5953-3.31-1.7778-4.13 0.8178-0.82 2.3588-0.22 5.8058 2.25 4.685 3.37 4.71 3.37 16.33 3.37 11.499 0 11.73-0.04 19.316-3.84 7.958-3.98 11.426-7.51 6.083-6.2-1.519 0.38-4.111 1.55-5.761 2.61-7.56 4.86-11.686 6.2-17.485 5.67-9.278-0.84-20.701-7.94-19.854-12.33 0.293-1.53 0.862-1.32 3.982 1.42 4.941 4.33 11.972 7.28 18.856 7.91 7.38 0.67 8.893-1.23 1.732-2.17-5.924-0.78-13.042-4.88-17.703-10.19-3.408-3.88-3.61-4.65-1.65-6.27 1.083-0.9 1.491-0.71 1.91 0.89 1.342 5.13 17.538 6.76 28.993 2.92 8.411-2.83 16.808-8.07 21.563-13.48 4.801-5.45 9.156-16.62 9.156-23.47 0-4.14-0.394-5.18-2.502-6.56-1.393-0.91-3.609-1.43-5-1.16-2.564 0.49-3.487-0.68-1.248-1.58 2.214-0.9-1.712-0.71-7.364 0.34-7.111 1.32-10.886 2.92-10.886 4.62 0 0.75-0.45 1.37-1 1.37s-1 0.68-1 1.5c0 0.83 0.54 1.5 1.2 1.5 0.825 0 0.877 0.33 0.167 1.04-0.568 0.57-1.825 0.73-2.793 0.35-2.178-0.83-1.781-4.2 1.567-13.29 3.223-8.76 5.384-10.18 17.038-11.2 13.138-1.16 18.339-2.92 25.593-8.68 5.232-4.15 6.792-7.68 7.672-17.42l0.68-7.54-5.995 2.1c-5.327 1.86-6.511 1.96-10.656 0.85-5.559-1.49-10.779-5.27-14.647-10.61-2.327-3.21-2.826-4.92-2.826-9.69 0-3.18 0.45-6.07 1-6.41s1 0.11 1 0.99c0 2.16 2.821 7.51 3.956 7.51 0.534 0 0.523-1.32-0.026-3.24-1.048-3.65-1.199-10.15-0.313-13.45 0.49-1.83 1.205-0.99 4.246 5 3.01 5.92 4.399 7.57 7.855 9.32 2.309 1.17 3.917 2.41 3.574 2.75-1.602 1.6-5.647 0.3-9.289-2.99-5.176-4.68-5.193-2.72-0.023 2.71 3.877 4.08 4.109 4.17 9 3.59 2.761-0.32 5.02-0.38 5.02-0.12 0 0.25-1.38 1.3-3.067 2.33-2.321 1.41-3.901 1.68-6.5 1.09-1.888-0.43-3.433-0.43-3.433 0 0 1.39 8.519 2.97 12.563 2.33l3.937-0.62-1.905 2.15c-1.085 1.23-3.238 2.22-5 2.3l-3.095 0.15 2.849 0.43c2.661 0.4 12.565-2.83 15.425-5.03 1.68-1.3 2.81-0.1 1.44 1.54-0.97 1.17-3.32 19.77-2.61 20.64 0.41 0.49 12.27-9.01 15.32-12.28 2.78-2.98 2.24-3.25-2.03-1.04-1.66 0.86-4.67 1.42-6.7 1.25l-3.69-0.31 6-3.5 6-3.5-4.25-0.3c-2.34-0.17-4.25-0.64-4.25-1.03 0-0.4 2.13-1.32 4.75-2.04 11.9-3.27 21.25-8.03 21.25-10.81 0-1.81 0.18-1.86-10.13 3.19-13.21 6.48-15.94 7.17-20.32 5.09-1.95-0.93-3.55-2.12-3.55-2.64 0-0.53-1.54-0.96-3.42-0.96-6.685 0-8.972-2.38-3.334-3.46 9.404-1.82 12.754-2.85 12.754-3.93 0-0.66 1.66-1.81 3.7-2.54 2.04-0.74 5.07-2.18 6.75-3.2 2.72-1.66 2.81-1.86 0.85-1.86-3.89-0.01-12.02 2.07-15.93 4.06-2.65 1.35-5.847 1.93-10.57 1.93-6.155 0-7.07-0.27-10.038-3.03l-3.266-3.03 3.865 2.2c5.415 3.08 11.03 2.86 17.529-0.67 8.82-4.8 11.9-9.82 20.71-33.67 4.62-12.52 8.69-21.24 10.43-22.31 0.74-0.46 0.71-1.09-0.11-2.07-1.49-1.8-0.04-3.71 4.11-5.43 1.63-0.68 2.97-1.904 2.97-2.73s1.31-4.034 2.91-7.129 4.3-8.607 6-12.25c2.29-4.911 4.98-8.421 10.41-13.583 9.52-9.035 13.95-12.015 30.28-20.347 7.43-3.792 14.62-7.761 15.96-8.82 3.12-2.452 18.16-8.258 30.44-11.748 12.29-3.496 15.4-4.832 17.68-7.603 5.46-6.6313 12.2-8.7738 19.54-6.215 7.55 2.63 10.74 4.472 12.97 7.485l2.18 2.945 13.06-0.245c12.69-0.239 13.3-0.153 21.14 3.008 4.44 1.789 12.76 6.255 18.5 9.924 5.73 3.669 13.13 7.993 16.43 9.608 7.44 3.643 26.55 22.558 34.07 33.714 4.66 6.935 10.42 17.784 10.43 19.688 0.01 0.447 1.92 2.043 4.25 3.548 3.41 2.2 3.82 2.74 2.06 2.75-1.73 0.01-2.25 0.69-2.5 3.26-0.44 4.52-2.29 4.06-5.09-1.25-1.82-3.46-3.02-4.57-5.17-4.82-4.38-0.517-5.14 1.27-1.62 3.78 3.66 2.61 3.18 4.13-1.21 3.79-2.58-0.2-3.18 0.13-3.2 1.75-0.03 2.35-1.01 2.32-8.52-0.31-3.03-1.05-7.08-2.2-9-2.54-1.93-0.35-0.35 0.49 3.5 1.86s7.7 3.34 8.56 4.38c1.44 1.73 8.97 6.11 10.5 6.11 0.36 0 0.38-0.7 0.05-1.56-0.5-1.29 1.76-7.44 2.72-7.44 0.87 0 26.11 13.17 28.88 15.06 1.81 1.24 5.59 4.48 8.42 7.2 2.82 2.71 5.38 4.52 5.7 4.02 0.31-0.51-0.99-2.39-2.88-4.18-3.39-3.2-5.05-6.81-4.24-9.23 0.22-0.67 1.37 0.34 2.55 2.25 2.26 3.66 7.74 7.21 12.74 8.25 2.45 0.51 2.16 0.18-1.63-1.82-4.61-2.45-5.82-3.67-13.37-13.5-4.81-6.25-7.93-8.04-16.5-9.47-3.58-0.59-6.5-1.53-6.5-2.08s2.41-1.13 5.37-1.3c8.16-0.47 14.58 3.08 21.91 12.11 7.29 9 11.16 11.69 16.78 11.69 3.44 0 4.81-0.57 7.1-3 4.95-5.24 5.39-2.68 0.65 3.74-1.99 2.68-2.09 3.12-0.6 2.58 0.98-0.36 2.9-1.51 4.26-2.56 3.98-3.05 3.91 0.14-0.07 3.47-4.44 3.7-9.98 5.12-16.71 4.28-3.84-0.48-5.22-0.36-4.74 0.42 0.95 1.53 7.3 4.07 10.17 4.07 1.31 0 2.38 0.45 2.38 0.99 0 1.25-3.63 2.11-7.5 1.77l-3-0.26 0.32 6c0.69 13 4.12 19.27 11.64 21.28 9.82 2.63 14.8 0.81 25.63-9.36 7.44-6.99 9.11-7.95 6.25-3.6-3.11 4.74-4.68 6.54-9.1 10.43-4.59 4.05-4.23 4.61 1.44 2.24 1.99-0.83 3.85-1.28 4.14-1 0.69 0.7 0.49 0.86-6.34 5.03l-5.98 3.66 4.5-0.7c2.47-0.38 6.38-1.55 8.69-2.59s4.67-1.89 5.25-1.89c1.96 0 1.07 1.93-1.9 4.13-1.63 1.21-2.72 2.59-2.42 3.08 1.25 2.02-8.31 8.79-12.41 8.79-3.67 0-3.06 1.28 1.74 3.67 13.19 6.57 19.35 16.34 23.05 36.55 7.29 39.74 10.63 45.78 25.36 45.78 3.65 0 6.64 0.4 6.64 0.88 0 2.49-10.51 4.2-16.27 2.65-4.84-1.31 2.7 2.38 8.27 4.05 6.49 1.94 14.96 1.48 20.41-1.1 4.75-2.26 5.48-1.4 1.6 1.86-5.58 4.69-13.35 5.76-23.01 3.16-7.22-1.93-7.66-1.88-5.41 0.61 2.7 2.99 12.8 7.89 16.26 7.89 2.89 0 8.1-1.94 11.35-4.23 0.93-0.66 2.06-0.83 2.5-0.38s-1.12 2.52-3.45 4.6c-2.34 2.08-4.25 4.22-4.25 4.74 0 3.15-10.98 4.25-17.93 1.8l-4.17-1.47 2.16 3.03c2.81 3.95 8.48 7.54 13.19 8.35 2.06 0.36 3.75 1.08 3.75 1.59 0 1.63-5.08 2.29-8.81 1.14-1.98-0.6-3.7-0.99-3.83-0.86-0.14 0.13 1.01 2.26 2.53 4.72 5.25 8.46 8.21 17.53 8.83 27.11 0.36 5.65 0.17 9.75-0.52 11.15-0.61 1.22-2.5 5.59-4.2 9.71-1.71 4.13-4.97 10.65-7.25 14.5-6.1 10.28-9.46 17.57-11.2 24.31-2.41 9.27-2.04 12.91 1.92 19.19 11.16 17.72 14.5 28.59 12.39 40.38-1.62 9.08-5.46 14.33-12.58 17.18-4.31 1.72-5.82 3.09-9.54 8.63-5.93 8.84-15.58 19.5-18.9 20.88-1.48 0.61-3.48 1.98-4.43 3.03-1.74 1.92-5.41 2.63-5.41 1.04 0-0.47-2.26-1.12-5.01-1.45-3.26-0.39-6.28-1.56-8.66-3.38l-3.65-2.78 0.75 3.99c0.41 2.19 1.38 5.78 2.14 7.98 1.67 4.8 1.83 7.87 0.36 6.97-0.58-0.36-1.49-1.8-2.02-3.2-1.3-3.42-2.28-2.2-1.41 1.76 0.47 2.13 1.8 3.81 4.1 5.17 3.77 2.22 4.56 4.34 1.31 3.49-1.84-0.48-2.02-0.22-1.46 2.13 0.34 1.48 1.69 3.58 2.98 4.68 1.84 1.58 2.24 2.7 1.84 5.25-0.28 1.79-0.66 3.25-0.86 3.25-0.19 0-2.73-1.07-5.63-2.38-6.81-3.07-10.2-4.1-9.44-2.87 0.32 0.52 3.98 2.43 8.12 4.24 4.15 1.81 7.54 3.67 7.54 4.15 0 1.13 0.68 1.3-9.01-2.21-17.98-6.51-25.47-8.93-26.46-8.55-0.57 0.22 1.22 1.4 3.97 2.61 12.97 5.75 25.29 11.87 25.92 12.89 0.86 1.39 1.09 1.43-4.92-0.82zm-143.5-14.06c0-0.55-0.42-1-0.93-1s-2.27-1.13-3.92-2.52c-1.95-1.64-3.24-2.14-3.68-1.43-0.78 1.26-0.47 1.64 3.27 4.04 3.14 2.01 5.26 2.38 5.26 0.91zm11.26 0.35c-0.67-0.28-2.02-0.29-3-0.04-0.97 0.25-0.41 0.48 1.24 0.5s2.44-0.19 1.76-0.46zm137.74 0.12c0-0.56-8.67-4.48-9.84-4.45-0.36 0.01 1.14 1.09 3.34 2.41 3.87 2.31 6.5 3.14 6.5 2.04zm-140-4.31c0-0.73-6.48-3.16-8.43-3.16-1.79 0 0.88 2.07 3.73 2.9 4.24 1.23 4.7 1.25 4.7 0.26zm119 0.38c0-1.04-4.43-2.72-9.07-3.46-5.5-0.87-6.75 0.23-1.68 1.48 1.78 0.44 4.37 1.11 5.75 1.5 3.17 0.9 5 1.07 5 0.48zm-27.5-4.07c-1.65-0.76-3.68-1.36-4.5-1.34-0.83 0.02-0.15 0.65 1.5 1.41s3.67 1.36 4.5 1.34c0.82-0.02 0.15-0.66-1.5-1.41zm-200.75-0.72c-0.52-1.59-5.74-2.1-12.66-1.24-7.7 0.96-4.54 2.46 5.24 2.48 5.82 0.01 7.73-0.31 7.42-1.24zm135.25 0.83c0-0.79-10.74-6.58-12.13-6.53-2.76 0.08 6.41 6.95 9.29 6.95 1.56 0 2.84-0.19 2.84-0.42zm-22-1.27c0-0.38-1.21-1.96-2.69-3.5-3.11-3.25-6.31-3.72-6.31-0.93 0 2.3 1.69 3.78 5 4.39 1.37 0.26 2.83 0.52 3.25 0.6 0.41 0.07 0.75-0.18 0.75-0.56zm6.5-2.31c-1.58-1.65-3.58-2.98-4.44-2.97-1.05 0.02-0.49 1.01 1.7 3 4.26 3.88 6.46 3.86 2.74-0.03zm121.5 2.11c0-0.96-2.44-2.13-4.34-2.07-0.64 0.01-0.29 0.69 0.78 1.5 2.2 1.66 3.56 1.88 3.56 0.57zm-189.34-6.72c2.56-2.32 2.94-3.39 1.2-3.39-1.41 0-7.86 6.76-7.86 8.23 0 1.02 0.93 0.34 6.66-4.84zm45.8 1.86c-0.34-2.06-0.8-4.31-1.01-5-0.62-1.96-2.45-1.45-2.45 0.68 0 1.06-0.74 2.67-1.64 3.57-2.14 2.13-0.49 3.6 4.93 4.39 0.44 0.06 0.52-1.57 0.17-3.64zm109.54 1.35c0-0.74-12.34-4.6-14.7-4.6-3.9 0-2.56 1.87 2.45 3.4 4.41 1.36 12.25 2.12 12.25 1.2zm-164.61-5.1c0.67-3.34-0.58-6.12-2.28-5.06-0.61 0.37-1.11 2.38-1.11 4.46 0 6.15 2.19 6.54 3.39 0.6zm-92.39 1.5c0-0.64-2.13-0.77-5.75-0.37-7.74 0.88-7.89 1.37-0.42 1.37 3.48 0 6.17-0.44 6.17-1zm122 0.56c0-0.24-0.45-0.72-1-1.06s-1-0.14-1 0.45c0 0.58 0.45 1.05 1 1.05s1-0.19 1-0.44zm66-3.39c0-0.92-3.27-2.7-6.75-3.67-1.33-0.37-2.25-0.19-2.25 0.44 0 0.58-0.02 1.4-0.04 1.81-0.02 0.42 1.67 1.03 3.75 1.36 2.08 0.34 4.12 0.67 4.54 0.75 0.41 0.08 0.75-0.23 0.75-0.69zm-143-2.67c0-0.82-0.45-1.5-1-1.5s-1 0.68-1 1.5c0 0.83 0.45 1.5 1 1.5s1-0.67 1-1.5zm37-1.5c0-0.55-0.45-1-1-1s-1 0.45-1 1 0.45 1 1 1 1-0.45 1-1zm92-1c-0.83-0.53-2.4-0.94-3.5-0.91-2 0.05-2 0.05 0 0.91 1.1 0.48 2.67 0.89 3.5 0.92 1.33 0.05 1.33-0.05 0-0.92zm-26.25-5.23c-1.62-3.26-1.63-3.26-1.69-0.6-0.09 3.9 0.96 6.21 2.26 4.91 0.74-0.74 0.57-2.03-0.57-4.31zm48.16 4.88c-1.18-1.02-6.02-1.63-5.44-0.69 0.35 0.58 1.82 1.04 3.25 1.04 1.44 0 2.42-0.16 2.19-0.35zm13.09-3.15c0-1.32-4.24-4.5-6-4.5-2.85 0-2.48 1.68 0.75 3.43 2.76 1.5 5.25 2.01 5.25 1.07zm-75.07-3.74c-0.52-1.78-0.93-3.36-0.93-3.5s-0.45-0.26-1-0.26c-1.83 0-1.14 5.82 0.75 6.32 0.96 0.25 1.83 0.5 1.93 0.57 0.1 0.06-0.24-1.35-0.75-3.13zm-26.24-1.49c-0.25-0.97-0.48-0.42-0.5 1.23s0.19 2.45 0.46 1.77c0.28-0.67 0.29-2.02 0.04-3zm124.76-0.66c-0.57-3.02-1.09-3.61-3.22-3.61-2.4 0-2.45 0.11-0.89 1.83 0.91 1.01 1.66 2.27 1.66 2.8 0 1.15 2.19 3.51 2.74 2.96 0.21-0.21 0.08-2-0.29-3.98zm-285.86-1.23c3.51-3 5.41-5.39 5.41-6.82 0-1.33 2.17-4.4 5.5-7.75 3.95-3.99 5.5-6.31 5.5-8.26 0-2.58-0.3-2.42-6 3.37-3.29 3.35-6.43 6.08-6.96 6.08-1.04 0-7.66 9.38-10.43 14.75-1.52 2.97-1.53 3.25-0.05 3.25 0.89 0 4.05-2.08 7.03-4.62zm5.83 2.76c1.6-0.94 3.84-2.95 4.98-4.47 1.77-2.38 1.85-2.9 0.58-3.72-1.13-0.73-2.49 0.17-5.71 3.8-5.73 6.44-5.68 7.81 0.15 4.39zm236.58 1.42c0-0.24-0.45-0.72-1-1.06s-1-0.14-1 0.45c0 0.58 0.45 1.05 1 1.05s1-0.19 1-0.44zm25.5-0.56c-0.34-0.55-1.5-1-2.56-1-1.07 0-1.94 0.45-1.94 1s1.15 1 2.55 1c1.46 0 2.3-0.43 1.95-1zm-293-2.86c2.2-1 4.587-2.53 5.305-3.4 1.183-1.43 0.872-1.44-3.351-0.17-2.56 0.77-7.603 1.7-11.205 2.07-5.812 0.6-6.342 0.82-4.708 2.02 2.578 1.88 9.219 1.64 13.959-0.52zm16.804-3.14c1.55-2.75 2.34-5 1.76-5s-2.97 1.68-5.311 3.72c-2.339 2.05-4.465 3.87-4.724 4.06-0.727 0.52 2.286 2.19 3.971 2.21 0.825 0.01 2.764-2.24 4.304-4.99zm369.7 3.97c0-1.41-2.39-2.21-5.18-1.72l-2.32 0.41 2.5 1.11c3.22 1.43 5 1.5 5 0.2zm-193.93-1.24c-0.04-0.4-0.07-1.4-0.07-2.23 0-0.82-0.45-1.5-1-1.5s-1 1.17-1 2.59 0.48 2.42 1.07 2.22c0.59-0.19 1.04-0.68 1-1.08zm84.43-2.73c-0.34-0.55-1.3-1-2.12-1-0.83 0-1.22 0.45-0.88 1s1.29 1 2.11 1c0.83 0 1.23-0.45 0.89-1zm16.04-0.93c-0.37-0.59-1.42-1.05-2.35-1.03-1.49 0.02-1.46 0.21 0.23 1.49 2.06 1.55 3.21 1.3 2.12-0.46zm90.61-0.02c6.82-1.12 9.94-2.35 11.95-4.68 3.41-3.95 5.17-19.02 2.77-23.68-0.62-1.2-2.05-3.2-3.17-4.44-2.32-2.54-1.21-2.99 1.94-0.78 1.15 0.8 2.26 1.29 2.47 1.08s0.23-2.67 0.04-5.46c-0.36-5.3-2.15-6.16-2.15-1.03 0 1.62-0.45 2.94-1 2.94s-1-0.65-1-1.45c0-4.24-2.3-11.55-3.63-11.55-1.17 0-1.3 0.77-0.67 3.75 1.38 6.5 0.91 11.91-1.22 14.27l-1.97 2.18-0.59-2.35c-0.59-2.29-0.7-2.25-4.51 1.71-5.39 5.59-9.2 18.6-8.55 29.26 0.1 1.8 0.56 2.18 2.04 1.72 1.05-0.34 4.31-1.01 7.25-1.49zm-385.76-2.2c4.991-1 6.532-1.93 11.977-7.25 3.438-3.35 7.234-8.23 8.444-10.83 2.49-5.41 2.9-7.88 0.99-5.97-2.41 2.41-2.61 1.09-0.68-4.41 1.09-3.09 1.76-5.84 1.49-6.11s-1.94 1.16-3.7 3.17c-1.77 2.01-4.494 4.32-6.063 5.13-2.523 1.31-2.852 2.02-2.857 6.2-0.012 10.56-3.67 16.21-12.519 19.32-5.909 2.08-4.932 2.33 2.918 0.75zm42.611-5.12c0-1.98-0.13-2.03-1.62-0.54-0.89 0.89-1.31 2.12-0.93 2.73 1 1.63 2.55 0.3 2.55-2.19zm149 0.66c0-0.83-0.45-1.23-1-0.89s-1 1.3-1 2.12c0 0.83 0.45 1.22 1 0.88s1-1.29 1-2.11zm104.5 0.61c-0.34-0.55-1.05-1-1.56-1-0.52 0-0.94 0.45-0.94 1s0.7 1 1.55 1c0.86 0 1.29-0.45 0.95-1zm-138.5-4c0-1.65-0.45-3-1-3-1.12 0-1.38 4.29-0.34 5.34 1.13 1.13 1.34 0.77 1.34-2.34zm-6.97-1c0.41-3.04-0.06-5.1-1.03-4.5-0.55 0.34-1 2.26-1 4.26 0 3.48 1.57 3.66 2.03 0.24zm21.31 0.21c-0.62-2.38-2.34-3.04-2.34-0.91 0 1.27 2.09 3.95 2.64 3.39 0.15-0.15 0.02-1.27-0.3-2.48zm35.74-6.25c1.09-0.58 1.72-1.46 1.42-1.94-0.3-0.49 0.09-1.26 0.87-1.7 0.78-0.45 2.89-3.95 4.7-7.79 1.8-3.83 3.44-6.5 3.63-5.92 0.19 0.57-1.17 4.38-3.02 8.47-2.87 6.35-3.22 7.93-2.43 10.92 0.51 1.93 1.73 4.26 2.71 5.18 1.69 1.58 1.82 1.43 2.41-3 0.61-4.56 3.04-10.57 9.13-22.59 3.47-6.86 6.66-9.23 3.95-2.94-5.4 12.54-7.52 18.44-6.97 19.34 1.03 1.66 3.51 1.15 3.55-0.74 0.03-1.46 0.35-1.37 2 0.62l1.97 2.36v-3.61c0-2.58 0.59-3.95 2.08-4.86 1.15-0.69 3.89-4.52 6.09-8.51 4.13-7.48 7.43-10.31 3.86-3.31-2.11 4.13-3.06 9.39-1.78 9.81 0.41 0.14 0.73 0.01 0.71-0.28-0.02-0.3 0.6-1.17 1.37-1.95 0.78-0.77 3.15-4.37 5.27-8.01 4.13-7.05 5.93-7.43 2.39-0.49l-2.12 4.16 2.31-0.72c2.77-0.87 3.82-2.28 3.1-4.16-0.31-0.82 0.03-1.26 0.84-1.09 1.54 0.33 1.69-3.38 0.37-9.21-0.78-3.43-0.76-3.46 1.18-1.75 3.97 3.51 5.25 2.36 4.77-4.25-0.23-3.3-0.09-6 0.32-6 1.27-0.02 3.13-4.94 2.1-5.58-0.52-0.32-0.68-1.43-0.35-2.46s0.11-2.8-0.49-3.92c-0.94-1.74-0.8-2.04 0.94-2.04 1.12 0 2.04 0.45 2.04 1s0.43 1 0.97 1c0.63 0 0.63-0.89 0-2.56-1.34-3.54-1.23-4.44 0.58-4.44 1.25 0 1.49-1.09 1.25-5.75-0.27-5.03-0.58-5.78-2.48-6.06-2.29-0.32-5.44-3.19-3.51-3.19 0.59 0 1.35 0.45 1.69 1 0.95 1.56 3.5 1.18 3.5-0.51 0-0.83-1.39-2.36-3.08-3.39-1.69-1.02-3.74-2.82-4.56-3.98-2.04-2.91-3.51-2.67-8.36 1.38-2.31 1.93-4.45 3.5-4.75 3.5-1.14 0 3.22-4.13 6.51-6.16l3.4-2.1 4.92 2.3c5.45 2.56 7.68 2.12 3.25-0.64-1.56-0.98-4.77-3.31-7.14-5.19-4.14-3.3-4.37-3.36-6.25-1.66-1.07 0.97-1.94 1.44-1.94 1.04 0-1.18-11.11 7.92-16.63 13.62-2.81 2.91-5.36 6.31-5.65 7.54-0.3 1.24-0.4 2.25-0.24 2.25s5.04-4.61 10.83-10.25c10.41-10.11 17.26-15.39 16.12-12.43-0.3 0.78-1.66 1.92-3.03 2.55-3.56 1.62-11.71 9.46-18.66 17.96-4.65 5.68-5.72 7.59-4.79 8.5 0.94 0.91 3.16-0.87 9.78-7.83 4.71-4.95 7.71-7.87 6.67-6.5-1.05 1.38-2.18 2.73-2.53 3-0.34 0.28-2.7 2.95-5.25 5.95-3.34 3.92-4.28 5.66-3.37 6.23 2.01 1.28 2.42 1.05 6.94-3.8 5.93-6.37 15.67-15.71 17.37-16.67 0.77-0.43-2.87 3.54-8.08 8.84-5.22 5.29-9.75 10.67-10.07 11.95-0.62 2.48-4.06 4.05-4.7 2.15-0.44-1.34-24.16-1.53-37.71-0.31-8.3 0.75-19.47 3.27-25.5 5.76-1.65 0.68-3.23 1.28-3.5 1.33-0.28 0.05-1.96 0.7-3.73 1.45-2.73 1.14-3.07 1.64-2.21 3.24 0.78 1.46 0.67 1.88-0.5 1.88-0.83 0-2.15-1.23-2.94-2.75-0.78-1.51-4.05-5.28-7.27-8.38-8.93-8.6-13.12-13.26-10.85-12.06 1.1 0.58 4.68 3.78 7.96 7.12 3.29 3.34 6.32 6.07 6.75 6.07 2.41 0-0.01-4.63-5.73-11.02-3.59-4-6.34-7.45-6.12-7.67 0.45-0.45 11.94 11.33 12.47 12.78 0.18 0.5 0.75 0.91 1.25 0.91 2.02 0 0.66-2.82-4.29-8.86-3.26-3.98-5.22-7.33-5.25-8.99-0.03-1.93-0.59-2.67-2.04-2.75-1.1-0.05-3.24-0.17-4.75-0.25-3.51-0.19-3.82-3.15-0.34-3.15 3.55 0 5.59-1 5.59-2.76 0-2.15 22.61-24.25 24.75-24.19 1.13 0.03-1.22 2.82-6.62 7.86-7.17 6.69-8.07 7.88-6.31 8.34 2.44 0.64 3.18 0.07 3.18-2.41 0-1.15 0.72-1.84 1.94-1.84 1.06 0 2.22-0.45 2.56-1s1.49-1 2.55-1c1.07 0 1.95-0.42 1.95-0.93 0-1.41 7.91-1.02 8.76 0.42 1.55 2.63 4.92 2.65 8.02 0.05 1.65-1.4 3.41-2.54 3.9-2.54 0.5 0 2.89-2.02 5.32-4.5 4.39-4.47 4.49-5.93 0.19-2.92-5.15 3.61-12.84 3.39-22.1-0.63-4.64-2.01-0.65-2.81 6.26-1.24 5.85 1.32 7.44 1.35 10.9 0.21 2.24-0.74 4.82-2.15 5.73-3.13 1.61-1.73 1.89-1.72 7.18 0.1 3.03 1.04 6.91 2.62 8.62 3.5 1.72 0.89 4 1.61 5.08 1.61s2.12 0.36 2.3 0.8c0.75 1.79 16.38 8 17.44 6.93 0.91-0.9-1.78-12.61-3.35-14.61-1.05-1.35-1.1-1.15-0.26 1.2 1.03 2.87 1.37 7.68 0.55 7.68-2.11 0-5.63-2.8-6.44-5.13-1.04-2.99-2.91-3.66-4.82-1.75-0.83 0.83-1.72-0.02-3.4-3.25-1.51-2.89-2.4-3.81-2.63-2.72-0.56 2.54-4.05 2.98-5.64 0.71-0.76-1.08-2.44-2.08-3.74-2.23-5.63-0.65-8.12-1.97-9.44-5.01-1.16-2.67-1.36-2.8-1.39-0.87-0.08 4.39-1.76 2.15-3.89-5.16-1.18-4.08-2.12-8.91-2.08-10.75l0.07-3.34 1.94 4 1.94 4-0.46-4c-0.45-3.92 1.79-8.5 4.17-8.5 0.51 0 2.01 2.37 3.34 5.25 2.13 4.62 2.79 5.26 5.43 5.28 2.58 0.03 3.39 0.76 5.81 5.25 1.55 2.87 3.22 5.22 3.72 5.22s0.64-0.67 0.33-1.5c-0.86-2.24 1.4-1.81 2.64 0.5 1.39 2.61 3 2.57 3-0.07 0-3.22 3.14-1.95 4.41 1.78 1.45 4.27 3.59 6.47 3.59 3.69 0-1.1-0.53-2.52-1.17-3.16-1.77-1.77 1.78-2.8 3.82-1.11 0.89 0.74 2.63 1.22 3.85 1.06 1.79-0.24 2.56 0.52 3.86 3.76 1.25 3.13 2.16 4.05 3.97 4.05 1.57 0 2.75 0.88 3.56 2.67 1.09 2.4 1.36 2.51 2.76 1.1 1.41-1.4 1.86-1.39 4.7 0.09 1.73 0.91 3.28 1.94 3.44 2.29 0.17 0.36 1.74 2.18 3.5 4.05 1.77 1.88 3.71 4.29 4.33 5.36 0.95 1.63 1.24 0.81 1.81-5.06 1.14-11.86 1.29-11.48 1.4 3.5 0.11 16.19 0.75 22.8 2.42 24.81 0.67 0.81 0.75 1.61 0.18 2.02-1.35 0.97-0.23 33.78 1.2 35.21 1.99 1.99 2.19-0.21 1.32-14.54-1.07-17.51-1.21-55.08-0.2-54.08 0.41 0.41 0.99 15.25 1.3 32.96 0.49 28.78 0.74 32.48 2.33 34.67 1.73 2.38 1.76 1.91 1.08-14.77-0.38-9.48-0.31-23.65 0.15-31.5l0.83-14.28 0.68 25.69c0.7 26.53 1.92 37.86 4.48 41.31 1.27 1.72 1.61 1.79 2.46 0.5 0.54-0.82 0.75-3.3 0.47-5.5-1.06-8.4-1.74-68.04-0.79-70.45 0.66-1.7 1.18 7.72 1.69 30.38 0.4 18.06 1.11 33.79 1.58 34.96 0.69 1.71 0.87 1.78 0.92 0.36 0.08-2.01 1.66-2.34 2.39-0.5 0.27 0.69 0.64-13.75 0.83-32.09s0.02-33.87-0.39-34.5c-0.54-0.84-0.74-0.82-0.75 0.09-0.01 0.69-0.48 1.25-1.04 1.25-0.57 0-0.27-1.45 0.66-3.25 2-3.87 2.69-8.43 1.38-9.24-0.58-0.36-0.57-1.54 0.02-3.11 1.2-3.15 1.22-8.44 0.05-10.3-0.67-1.05-1.55-0.11-3.49 3.72-2.02 3.98-2.63 6.74-2.74 12.4l-0.14 7.28-0.72-7c-0.4-3.85-0.39-7.9 0.02-9 1.15-3.1 4.75-17.99 6.9-28.5 3.48-17.03 5.23-24 6.03-24 0.43 0 0.58 1.24 0.34 2.75-1.07 6.69-4.43 22.68-4.94 23.51-0.75 1.2-3.27 11.84-3.27 13.74 0.01 2.17 2.99-4.18 6.59-14 3.27-8.94 4.82-15.66 6.45-27.92 0.54-4.09 1.4-8.14 1.91-9 1.57-2.7 1.09 6.48-1.02 19.28-1.53 9.25-1.7 12.33-0.81 14 1.12 2.08 1.18 2.06 2-0.86 0.83-2.95 2.2-11.25 3.77-23 0.45-3.3 1.12-6.75 1.5-7.66 0.4-0.97-0.07-2.87-1.12-4.5-1.53-2.4-1.56-2.64-0.16-1.53 2.82 2.23 3.24-1.96 0.65-6.44l-2.23-3.87 3.08 3.24c1.7 1.78 3.4 4.03 3.77 5 0.64 1.67 0.74 1.66 1.72-0.08 0.8-1.44 0.34-3.21-2.08-8-1.71-3.39-2.31-5.06-1.35-3.71 0.97 1.35 2.53 3.37 3.47 4.5 1.7 2.03 1.72 2.02 1.75-0.95 0.02-1.66-1.11-5.26-2.51-8-2.69-5.27-1.3-4.02 3.9 3.5 4.78 6.9 4.11 3.72-1.27-6.04-5.2-9.42-6.58-13.42-3.08-8.96 1.07 1.38 1.96 2.8 1.97 3.16 0.04 1.01 5.32 8.88 5.71 8.5 0.41-0.42-6.09-12.99-8.57-16.56-0.98-1.43-2.06-3.35-2.39-4.28-1-2.77-4.16-3.95-6.32-2.37-1.71 1.25-1.61 1.33 1.11 0.9 4.34-0.68 1.14 1.04-5.01 2.7-2.75 0.74-7.61 2.89-10.79 4.79-5.68 3.38-8.22 3.69-5.73 0.69 1.08-1.31 0.83-1.53-1.78-1.53-1.67 0-4.4 0.78-6.06 1.74-3.66 2.09-5.53 0.82-2.33-1.59 3.51-2.65 1.33-3.4-2.72-0.93-2.71 1.66-3.26 1.78-2.22 0.49 1.22-1.52 1.09-1.71-1.27-1.71-2.32 0-2.57-0.3-2.01-2.51 0.61-2.44-0.89-5.49-2.72-5.49-0.48 0-0.88 1.02-0.89 2.25-0.02 3.01-1.49 5.18-2.92 4.3-0.63-0.4-1.69-0.3-2.36 0.21-0.66 0.51-4.58 2.01-8.7 3.34-9.84 3.15-25.73 3.37-29.02 0.39-2.02-1.83-2.2-1.83-7.58 0-3.04 1.03-6.28 2.48-7.21 3.21-0.93 0.74 0.78 0.39 3.81-0.76 7.79-2.98 9-3.28 9-2.29 0 0.97-2.07 2.39-9.5 6.53-5.6 3.12-5.61 3.6-0.02 1.27 4.59-1.92 5.84-1.18 1.66 0.98-1.68 0.87-3.5 2.36-4.05 3.32-0.96 1.67-1.15 1.67-4.13 0-1.72-0.96-3.96-1.75-4.99-1.75-1.02 0-2.11-0.41-2.42-0.91s-3.74-2.16-7.61-3.68c-6.78-2.66-10.79-5.37-5.82-3.93 6.29 1.82 6.47 1.73 3.13-1.4-3.73-3.49-4.18-4.64-1.2-3.05 3.79 2.03 4.27 0.41 0.99-3.32-1.79-2.04-2.78-3.71-2.21-3.71 0.58 0 1.32 0.45 1.66 1s1.6 1.52 2.81 2.16c1.53 0.81 1.06-0.1-1.55-3-4.69-5.2-4.77-6.03-0.25-2.59 4.93 3.77 4.39 1.68-0.7-2.7-3.86-3.33-4.13-3.85-3.09-6.13 2.07-4.55 7.36-9.74 9.92-9.74 1.34 0 2.68-0.65 2.99-1.46 0.52-1.35 2.94-2.57 6.25-3.15 0.75-0.14 2.6-1.43 4.11-2.87 2.15-2.06 3.32-2.48 5.45-1.94 2.21 0.55 3.33 0.07 6.07-2.58 1.92-1.86 3.98-3.02 4.81-2.71 0.79 0.31 1.95 0.05 2.56-0.56 0.83-0.83 1.42-0.83 2.25 0 0.61 0.61 1.69 0.9 2.4 0.63 0.7-0.27 1.58 0.01 1.96 0.62 0.5 0.81 1.1 0.78 2.18-0.11 1.19-0.99 1.68-0.95 2.43 0.2 0.8 1.22 1.15 1.17 2.29-0.32 1.69-2.21 3.62-2.26 3.62-0.09 0 1.54 0.12 1.54 1.82 0 2.29-2.07 3.29-2.12 2.52-0.12-0.45 1.19 0.24 1.05 3.04-0.6 1.99-1.17 3.87-2.54 4.18-3.04 0.3-0.49 1-0.9 1.55-0.9s0.73 0.45 0.39 1c-0.98 1.59 1.12 1.17 2.5-0.5 1.77-2.13 4-1.85 4 0.5 0 2.28 0.38 2.41 3 1 1.28-0.68 2.08-0.66 2.53 0.07 0.44 0.7 1.27 0.51 2.47-0.57 1.18-1.06 2.02-1.26 2.45-0.57 0.71 1.15-2.76 6.14-7.18 10.33-5.54 5.23-6.94 8.23-3.52 7.53 0.96-0.2 1.62-1.08 1.48-1.97-0.29-1.68 13.35-14.78 15.4-14.8 0.62-0.01 1.37 0.88 1.66 1.98 0.28 1.1 1.24 2 2.11 2 0.88 0 1.6 0.42 1.6 0.94 0 0.51 0.96 1.23 2.13 1.61 1.18 0.37 4.14 2.2 6.58 4.07 2.44 1.86 5.3 3.38 6.36 3.38s1.93 0.35 1.93 0.78c0 0.65 1.79 1.74 8.4 5.08 0.5 0.25 0.58-0.07 0.19-0.7-0.89-1.44 0.9-1.5 3.47-0.12 1.29 0.69 1.94 0.7 1.94 0.03 0-0.56-3.27-2.84-7.25-5.07-3.99-2.22-8.88-5.05-10.87-6.27-1.98-1.23-6.82-4.19-10.75-6.59-8.79-5.38-9.44-6.58-0.88-1.65 10.17 5.86 25.59 13.51 27.23 13.51 3.44 0 1.33-3.6-3.74-6.37-7.23-3.96-19.72-12-19.73-12.71-0.01-0.32 5.13 2.05 11.42 5.26 11.45 5.85 14.37 6.23 11.24 1.45-1.29-1.97-11.53-8.29-29.88-18.44-2.59-1.44-4.55-2.76-4.36-2.96 0.19-0.19 7.65 3.31 16.57 7.77 8.91 4.47 16.37 7.96 16.57 7.76 0.2-0.19 0.01-1.68-0.41-3.31-0.6-2.31-2.15-3.67-7.21-6.3-7.22-3.75-24.95-14.19-24.95-14.69 0-0.17 4.62 2.01 10.28 4.86 19.34 9.76 21.23 10.29 19.01 5.43-0.61-1.34-4.47-4.08-9.41-6.68-9.4-4.95-19.23-11.05-18.7-11.59 0.2-0.19 5.75 2.32 12.34 5.58 6.59 3.27 12.5 5.94 13.14 5.94 0.78 0 0.92-0.91 0.44-2.75-0.57-2.16-2.79-3.91-10.39-8.18-5.32-3-9.52-5.59-9.34-5.78 0.19-0.18 4.18 1.44 8.89 3.6 8 3.68 8.58 3.81 9.06 2 0.38-1.47-0.4-2.4-3.24-3.84-4.28-2.19-16.08-9.9-16.08-10.52 0-0.23 3.54 1.36 7.87 3.53 8.99 4.5 10.7 4.88 9.17 2.02-0.57-1.05-5.07-4.23-10.02-7.06-7.81-4.47-11.32-7.02-9.66-7.02 0.26 0 3.74 1.57 7.74 3.49 4 1.91 7.46 3.29 7.69 3.05 0.82-0.82-3.87-6.42-5.91-7.07-2.77-0.88-11.12-6.56-10.53-7.16 0.26-0.26 1.38 0.02 2.49 0.61 2.99 1.6 3.93 1.31 1.43-0.44-1.7-1.19-12.25-3.25-17.63-3.44-0.47-0.02-0.62-0.65-0.34-1.39 0.41-1.06-1.69-1.5-9.64-2.01-5.59-0.36-11.34-0.92-12.79-1.24-2.49-0.55-2.61-0.39-2.5 3.26 0.11 3.21-0.2 3.84-1.86 3.85-1.61 0-2.12 0.9-2.66 4.7-0.8 5.55-1.44 6.79-3.52 6.79-1.07 0-1.34-0.54-0.87-1.75 2.18-5.64 0.58-15.21-3.33-19.9-2.79-3.35-11.84-8.52-14.37-8.23-1.24 0.15-3.79-0.54-5.65-1.52l-3.39-1.79 2.3 3.35c1.26 1.84 3.53 4.69 5.05 6.34 4.4 4.8 7.12 10.81 6.11 13.54-0.83 2.24-0.89 2.21-1.5-0.86-1.04-5.23-2.33-3.61-2.44 3.07-0.16 10.43-5.44 20.11-14.17 25.97l-4.57 3.08 4.16-4.4c4.62-4.87 9.82-14.46 10.84-19.98 0.56-3.08-1.41-10.92-2.75-10.92-0.19 0-0.17 2.89 0.06 6.42 0.5 7.84-2.27 14.68-8.74 21.58l-4.21 4.5 3.17-4.83c3.88-5.91 6.97-14.4 6.97-19.17 0-3.95-2.15-9.85-4-10.99-0.93-0.58-0.94-0.25-0.03 1.45 0.65 1.21 1.22 4.97 1.26 8.37 0.16 11.75-6.47 19.33-20.23 23.12-1.38 0.38 0.42-0.8 4-2.63 4.97-2.55 7.28-4.49 9.84-8.32 3.09-4.62 3.32-5.49 2.98-11.51-0.29-5.29-0.9-7.22-3.21-10.25-1.57-2.05-3.33-3.74-3.92-3.74s-2.13-0.99-3.43-2.22c-3.22-3.02-13.7-3.65-21.89-1.31-14.65 4.2-33.6 18.26-38.64 28.66-3.53 7.28-21.57 19.12-34.15 22.39-10.89 2.84-17.32 1.39-22.96-5.17l-2.24-2.59-5.12 4.99c-5.77 5.62-9.57 12.7-9.09 16.93 0.33 2.82 0.34 2.81 6.08-3.06 3.16-3.24 5.75-5.23 5.75-4.42 0 0.8-1.11 2.49-2.46 3.76-3.4 3.2-11.54 15.51-11.54 17.45 0 2.89 1.43 1.65 6.84-5.92 2.95-4.12 5.77-7.49 6.28-7.49 0.81 0-2.55 5.58-4.21 7-2.41 2.07-9.17 15.65-9.57 19.21l-0.47 4.29 3.2-3.5 3.2-3.5-3.19 5.72c-2.59 4.63-3.14 6.64-2.89 10.5l0.31 4.78 7.34-10.75c4.05-5.91 7.76-11 8.25-11.31 1.74-1.07 0.89 1.27-1.13 3.09-1.11 1.02-4.94 6.41-8.5 11.99-4.94 7.75-6.46 11.01-6.46 13.81 0 4.85 1.61 4.68 3.11-0.33 0.66-2.2 1.61-4 2.1-4 0.5 0 0.63 0.45 0.29 1-0.88 1.43 0.85 1.24 2.36-0.25 0.7-0.68-0.33 1.42-2.28 4.67-1.96 3.26-3.86 7.53-4.22 9.5-0.37 1.97-1.23 4.48-1.91 5.58-1.44 2.32-4.76 13.53-4.18 14.11 0.22 0.22 1.87-1.45 3.68-3.7 1.82-2.26 5.96-6.95 9.21-10.42 3.25-3.48 5.49-6.58 4.98-6.9-0.51-0.31-1.22 0.17-1.57 1.09-0.44 1.14-0.96 1.34-1.67 0.63-0.65-0.65-0.77-3.35-0.34-7.17 0.67-5.95 1.89-7.96 2.67-4.39 0.21 0.97 0.72-0.37 1.13-2.97 0.94-5.9 2.61-7.18 2.73-2.08l0.09 3.8 0.97-3.5c0.53-1.92 1.42-5.22 1.97-7.33 0.72-2.75 1.41-3.67 2.47-3.27 0.82 0.32 1.74-0.09 2.05-0.91 0.99-2.58 2.31-0.54 1.82 2.8-0.34 2.27 0.03 1.75 1.28-1.79 0.96-2.75 2.21-4.77 2.76-4.5 0.55 0.28 0.88 1.18 0.73 2-1.51 8.47-1.45 8.72 0.83 3.75 2.18-4.73 3.94-6.15 3.94-3.18 0 0.86-0.48 2.46-1.07 3.55-0.58 1.1-0.9 2.75-0.71 3.69 0.21 1.04 1.38-0.54 3.01-4.06 2.87-6.21 5.38-7.83 4.27-2.75-0.74 3.36 0 3.77 2.6 1.41 1.52-1.37 2.27-1.41 5.57-0.29 2.11 0.72 4.36 1.69 5.01 2.16 0.76 0.55 1.57 0.12 2.28-1.21 1.73-3.24 4.02-2.58 4.14 1.18l0.11 3.25 1.09-2.75c1.01-2.56 1.48-2.75 6.89-2.75 5.35 0 5.81 0.18 5.83 2.25l0.02 2.25 1.84-2.39c1.91-2.48 4.46-2.16 3.47 0.43-0.63 1.64 1.18 2.03 2.15 0.46 0.34-0.55 1.91-1 3.49-1 2.05 0 3.06 0.61 3.55 2.13 0.66 2.08 0.73 2.06 2.9-0.66 2.75-3.45 3.66-2.33 3.71 4.62 0.03 3.74 0.55 5.53 1.94 6.73 1.05 0.9 1.91 2.22 1.91 2.94 0 1.02 0.46 1.06 2.05 0.21 1.13-0.6 2.54-0.93 3.13-0.74 0.58 0.2-0.79 1.19-3.06 2.22-2.27 1.02-4.12 2.29-4.12 2.82s1.12 0.23 2.5-0.67c1.37-0.9 2.55-1.52 2.62-1.37 1.07 2.28 0.27 5.05-1.66 5.79-1.25 0.47-2.61 1.42-3.03 2.09-0.75 1.21-0.52 1.17 4.32-0.81 1.77-0.72 1.54 1.03-0.5 3.83-1.96 2.67-2.83 4.08-7.17 11.54-3.65 6.27-6.05 8.16-3.16 2.48 1.14-2.24 2.08-4.31 2.08-4.61 0-1.24-2.08-0.38-4.11 1.71-1.26 1.3-1.97 1.62-1.68 0.75 1.63-4.79 1.83-6 0.97-6-1.32 0-3.52 3.61-5.65 9.24-1.72 4.53-4.05 7.58-5.05 6.58-0.26-0.26 1.05-4.26 2.9-8.89 5.28-13.18 5.27-13.13 2.05-12.32-1.88 0.47-2.52 0.34-2.05-0.42 1.14-1.84-6.75-5.19-12.21-5.19h-4.91l-0.52 3.87c-0.73 5.47-3.33 8.9-8.56 11.28-7.46 3.4-10.87 2.97-15.2-1.91l-3.7-4.17-2 2.22c-1.1 1.22-2.48 4.18-3.06 6.57l-1.07 4.36 14.68-0.41 14.67-0.41 9.5-4.81c5.22-2.64 10.32-5.54 11.34-6.43 1.76-1.56 1.8-1.46 1.09 2.36-1.22 6.5-3.26 10.48-5.37 10.48-1.04 0-2.68 0.3-3.62 0.67-1.52 0.58-1.64 0.19-1.02-3.11 0.89-4.76-1.41-4.54-2.66 0.26-0.81 3.12-3.76 4.53-3.76 1.8 0-1.15-0.72-1.12-4.25 0.18-7.31 2.68-41.62 1.85-43.41-1.05-0.33-0.53 2.05-3.37 5.28-6.31s10.04-9.19 15.14-13.89c5.09-4.7 9.71-8.55 10.25-8.55s0.99-0.5 0.99-1.12c0-0.77-0.4-0.8-1.25-0.11-1.46 1.17-10.66 1.11-12.52-0.09-1.84-1.18-9.23-1.7-9.23-0.64 0 0.5-0.75 0.61-1.67 0.26-1-0.38-1.41-0.23-1.03 0.38 0.34 0.56-4.22 5.94-10.13 11.97-12.97 13.21-19.64 22.85-20.53 29.66-0.73 5.67 0.07 5.47 4.48-1.11 5.56-8.27 15.35-21.15 16.1-21.18 0.4-0.01-1.99 3.61-5.32 8.03-10.11 13.45-16.06 23.82-15.68 27.36l0.33 3.09 1.97-3.24c2.93-4.82 3.75-3.94 0.93 0.99-2.71 4.74-2.97 6.98-1.36 11.61 1.16 3.32 3.47 4.51 2.44 1.25-0.42-1.32-0.14-1.85 0.91-1.75 0.86 0.08 3.69-3.1 6.53-7.36 2.76-4.12 5.02-6.99 5.02-6.38s-0.95 2.33-2.12 3.81c-1.16 1.48-3.36 4.96-4.87 7.74-2.37 4.33-2.6 5.44-1.66 7.93 0.6 1.6 1.43 2.9 1.83 2.9 0.41 0 2.9-2.91 5.53-6.48 2.64-3.56 5.21-6.48 5.72-6.5 0.51-0.01 0.02 1-1.09 2.23-3.53 3.95-8.34 11.8-8.3 13.55 0.02 0.94 0.68 2.56 1.47 3.6 1.21 1.61 1.68 1.7 3.03 0.58 0.88-0.73 2.28-2.64 3.11-4.25 0.82-1.6 1.72-2.69 1.99-2.43 0.27 0.27-0.77 2.74-2.3 5.48-2.55 4.56-2.67 5.23-1.39 7.61 1.75 3.27 2.79 3.3 4.24 0.11s2.04-3.14 3.56 0.3c0.68 1.53 2.68 4.74 4.43 7.13l3.2 4.34 2.36-2.75c3-3.48 4.22-2.54 1.38 1.07-2.49 3.17-2.66 5.32-0.63 7.97 1.46 1.9 1.53 1.89 3.48-0.56 2.28-2.86 2.63-1.69 0.59 1.98-1.17 2.11-1.16 2.89 0.06 5.25 0.79 1.53 1.02 2.77 0.52 2.77-0.51 0-1.23-0.78-1.6-1.75-0.59-1.5-0.89-1.36-2.14 1-1.28 2.41-1.27 3.1 0.09 5.72 1.29 2.51 1.31 2.89 0.1 2.43-1.75-0.67-3.82 2.83-2.97 5.04 0.44 1.15 0.17 1.42-0.96 0.98-1.15-0.43-2.82 1.32-6.11 6.42-4.92 7.6-5.33 8.92-3.04 9.8 0.82 0.32 1.5 1.46 1.5 2.53 0 3.34 1.64 1.19 7.43-9.75 5.89-11.15 8.57-15.33 9.83-15.38 0.86-0.04-4.79 11.64-6.76 13.96-0.7 0.83-1.59 2.56-1.98 3.85-0.4 1.29-2.02 4.28-3.62 6.64-2.16 3.2-2.9 5.48-2.9 8.91 0 2.53 0.41 4.6 0.91 4.6s1.93-2.13 3.18-4.75c4.16-8.7 16.63-27.85 17.54-26.94 0.2 0.19-2.41 4.56-5.8 9.71-7.55 11.46-13.86 23.54-13.77 26.37 0.07 2.07 0.09 2.07 1.16-0.14 1.55-3.21 2.77-2.77 2.79 1 0.02 2.8 0.87 1.66 6.09-8.07 3.34-6.24 6.25-11.16 6.46-10.94 0.22 0.21-2.36 5.86-5.74 12.54-4.49 8.91-5.85 12.5-5.08 13.44 0.57 0.71 1.21 2.18 1.41 3.27 0.24 1.32 2.34-1.94 6.27-9.79 3.25-6.48 6.34-12.05 6.87-12.38s0.78-0.19 0.56 0.3c-0.23 0.48-2.54 5.31-5.13 10.73-4.12 8.57-4.72 10.66-4.72 16.25 0 3.52 0.38 6.4 0.85 6.4 0.46 0 2.59-3.86 4.72-8.59 2.12-4.72 4.04-8.07 4.25-7.43 0.21 0.63-1.6 5.29-4.03 10.34-4.21 8.75-4.37 9.4-3.33 13.61 1.46 5.89 3.54 6.57 3.54 1.16 0-3.93 1.84-5.92 2.15-2.34 0.08 0.97 0.26 2.2 0.38 2.75 0.13 0.55 0.29 2.69 0.35 4.75 0.09 3.05 0.49 3.75 2.12 3.75 1.44 0 2-0.66 2-2.37 0-1.31 0.6-2.89 1.35-3.5 1.11-0.92 1.45 0.35 1.93 7.13 0.81 11.41 2.07 14.09 2.72 5.74l0.5-6.5 1.75 3.2c0.96 1.76 1.75 5.28 1.75 7.81 0 2.82 0.38 4.37 1 3.99 0.55-0.34 1-2.39 1-4.55 0-2.17 0.33-3.93 0.75-3.92 0.41 0.02 1.87 1.58 3.25 3.47 1.37 1.9 2.83 3.46 3.25 3.48 0.41 0.01 0.82-1.89 0.92-4.23 0.26-6.48 0.35-7.16 1.09-8.36 0.38-0.62-0.2-1.92-1.29-2.91-1.81-1.63-2.72-4.48-1.44-4.48 0.3 0 1.65 0.73 3 1.62 3.2 2.09 3.17 0.77-0.03-2.2-2.75-2.54-3.24-4.42-1.18-4.42 1.93 0 5.42 4.07 6.2 7.21 0.37 1.49 1.3 3.24 2.07 3.88 1.88 1.55 1.79 3.91-0.15 3.91-0.86 0-1.31 0.41-1 0.91s1.43 0.68 2.49 0.4c1.59-0.42 2.07 0.18 2.66 3.34 0.4 2.12 1.55 5.33 2.56 7.13 1.16 2.06 1.87 5.42 1.92 9 0.07 6.39 1.3 10.77 2.3 8.22 0.33-0.82 0.71-5.55 0.86-10.5 0.21-7.21 0.56-9 1.77-9 1.18 0 1.5 1.42 1.5 6.76 0 6.51 0.66 8.38 1.86 5.24 0.94-2.44 3.81-1.84 3.45 0.73-0.21 1.49 0.27 2.34 1.46 2.58 1.66 0.33 3.47-1.32 8.58-7.81 2.87-3.63 3.62-1.85 1.22 2.87-2.2 4.31-2.72 8.13-1.09 8.13 0.53 0 1.89-1.78 3-3.97 3.29-6.45 10.02-13.33 10.02-10.25 0 0.43-1.69 3.04-3.75 5.8-6.13 8.2-6.84 9.98-4.8 12.02 1.45 1.46 1.87 1.51 2.62 0.32 0.49-0.78 0.9-2.18 0.91-3.12 0.01-0.93 0.62-2.06 1.36-2.5 0.73-0.44 2.62-3.01 4.19-5.71 3.77-6.5 4.47-4.03 0.83 2.92-2.24 4.27-2.58 5.68-1.62 6.64 0.67 0.67 1.38 1.03 1.57 0.79 1.74-2.21 6.69-10.21 6.69-10.83 0-1.09 3.9-4.54 4.48-3.96 0.26 0.26-1.33 3.55-3.54 7.32-3.74 6.4-3.92 7.08-2.85 10.44 1.76 5.51 2.91 6.02 2.91 1.29 0-3.73 0.26-4.2 2.33-4.2 1.82 0 2.98-1.23 5.25-5.58 1.6-3.07 3.48-6.05 4.17-6.62 2.44-2.04 1.27 1.37-3.22 9.35-4.43 7.88-4.44 7.94-2.5 9.89 1.08 1.08 1.97 2.67 1.97 3.52 0 0.86 0.45 1.28 1 0.94s1-1.91 1-3.5c0-1.58 0.48-3.18 1.07-3.54s2.45-3.55 4.14-7.09c1.68-3.53 3.53-6.71 4.1-7.06 0.66-0.41 0.74 0.04 0.23 1.28-4.42 10.59-4.7 11.75-3.11 12.64 0.86 0.48 1.57 1.53 1.57 2.32 0 3.33 1.83 0.86 6.82-9.16 2.9-5.84 5.52-10.37 5.82-10.08 0.29 0.3-1.53 4.88-4.06 10.18-3.6 7.54-4.37 10.04-3.59 11.51 0.55 1.03 1.08 2.91 1.18 4.19 0.1 1.27 0.35 0.4 0.56-1.93 0.26-2.94 0.99-4.57 2.35-5.3zm-66.58-41.96c-0.34-0.55-0.15-1 0.44-1 0.58 0 1.06 0.45 1.06 1s-0.2 1-0.45 1c-0.24 0-0.71-0.45-1.05-1zm2.83-6.83c-3.4-3.66-6-6.83-5.8-7.03 0.65-0.66 13.4 11.31 13.43 12.61 0.06 2.23-1.36 1.2-7.63-5.58zm10.67 5.01c0-0.45-1.63-2.72-3.62-5.04-4.91-5.74-3.71-6.3 1.47-0.68 4.09 4.44 5.1 6.54 3.15 6.54-0.55 0-1-0.36-1-0.82zm98.63-5.68c0.32-0.82 1.26-1.5 2.1-1.5 1.23 0 1.28 0.28 0.27 1.5-0.69 0.83-1.63 1.5-2.1 1.5-0.46 0-0.58-0.67-0.27-1.5zm-5.88-4c1.34-2.47 8.06-9.02 8.65-8.42 0.47 0.46-4.81 6.44-7.88 8.92-1.72 1.39-1.77 1.36-0.77-0.5zm-5.75-3.45c0-1.24 15-16.37 15.62-15.75 0.2 0.2-3.23 4.09-7.63 8.65s-7.99 7.75-7.99 7.1zm-117.68-10.3c-0.01-1.78-0.47-5.27-1.01-7.75l-0.99-4.5-0.83 5c-0.46 2.75-0.89 5.68-0.96 6.5-0.07 0.83-0.56 1.5-1.08 1.5s-0.8-2.13-0.61-4.75c0.23-3.22-0.05-4.75-0.86-4.75-0.78 0-1.06-1.2-0.8-3.43 0.22-1.88 0.08-3.23-0.31-2.99s-1.02 3.83-1.41 7.98c-0.7 7.44-0.73 7.51-2.69 5.74-1.79-1.62-1.92-2.58-1.29-9.79 0.38-4.4 1.37-9.8 2.19-12s2.41-6.84 3.52-10.31c1.12-3.46 2.2-6.13 2.4-5.94 0.45 0.46-1.22 15.37-2.17 19.31-0.39 1.62-0.4 2.65-0.02 2.31 0.38-0.35 1.58-4.4 2.68-9 2.56-10.71 5.09-16.73 5.98-14.19 0.53 1.51 0.9 1.29 2.29-1.41 2.09-4.04 5.41-6.06 6.27-3.82 0.32 0.85 0.32 2.33-0.02 3.29-0.51 1.46-0.36 1.43 0.89-0.19 0.83-1.06 1.51-2.5 1.51-3.19s0.51-1.56 1.13-1.95c0.79-0.48 0.99 0.27 0.67 2.44-0.61 4.2 0.94 4 2.76-0.36 2.14-5.11 3.68-4.45 2.93 1.25-1.05 8.01-1.62 10.25-2.57 10.25-0.51 0-0.93 1.47-0.94 3.25-0.03 7.32-2.88 11-3.1 4-0.06-2.06-0.32-2.85-0.58-1.75-1.85 8.09-2.42 9.4-3.83 8.86-1.13-0.44-1.5 0.33-1.57 3.29-0.13 5.01-1.31 8.91-2.62 8.65-0.56-0.12-1.6 2.47-2.29 5.75-1.39 6.53-2.63 7.79-2.67 2.7zm20.68-32.02c0-2.42 0.43-6.83 0.96-9.81s1.23-7.12 1.55-9.19c0.32-2.08 0.95-3.56 1.39-3.29 0.44 0.28 1.66-0.15 2.7-0.94 2.78-2.1 3.4-1.83 3.4 1.5 0 4.31 1.46 3.7 3.01-1.25 0.74-2.33 2.16-5.17 3.16-6.31s1.86-3.39 1.9-5c0.08-3.54 1.74-8.11 1.86-5.13 0.13 3.59 2.02 0.5 2.67-4.37 0.36-2.74 1.01-5.2 1.43-5.46 0.43-0.26 0.53 1.32 0.24 3.52-0.78 5.79 1.22 5.04 3.33-1.25 1.47-4.38 1.86-4.86 2.33-2.94 0.64 2.6 1.93 3.02 3.19 1.03 0.6-0.95 0.85-0.65 0.86 1.04 0.01 1.99 0.25 2.17 1.52 1.12 1.79-1.48 1.78-1.7 0.38 7.31-0.61 3.96-1.53 7.46-2.05 7.79-0.79 0.49-1.44 3.2-1.77 7.28-0.03 0.48-0.69 0.35-1.45-0.28-1.11-0.92-1.53-0.6-2.13 1.63l-0.75 2.77-0.91-3.28c-1.12-4.08-2.82-3.27-2.82 1.34 0 1.9-0.45 3.44-1 3.44s-1-0.47-1-1.05c0-0.59-0.45-0.79-1-0.45s-1 2.15-1 4.02c0 2.22-0.77 4.12-2.19 5.45-3.12 2.9-4.14 2.53-3.38-1.22 0.36-1.78 0.89-4.82 1.16-6.75 0.75-5.24-1.21-1.51-2.09 4-0.83 5.12-3.35 10-5.15 10-0.67 0-1.5 0.9-1.85 2-0.66 2.06-2.5 2.8-2.5 1 0-0.55-0.45-1-1-1s-1 1.33-1 2.95c0 1.61-0.45 3.21-1 3.55-0.61 0.38-1-1.1-1-3.77zm3.66-6.98c-0.28-0.68-0.51-0.12-0.51 1.25 0 1.38 0.23 1.94 0.51 1.25 0.28-0.68 0.28-1.81 0-2.5zm133.34-6.69c0-1.06 0.38-2.18 0.85-2.47s0.64 0.59 0.38 1.94c-0.56 2.96-1.23 3.24-1.23 0.53zm-124.62-16.79c0.35-2.33 1.73-7.51 3.06-11.5 2.05-6.14 2.44-6.74 2.49-3.87 0.04 1.86-0.88 6.59-2.03 10.5-2.49 8.45-4.47 11.2-3.52 4.87zm126.19-8.15c-0.36-0.58 0.04-2.4 0.89-4.04 0.84-1.64 1.54-3.72 1.54-4.64 0-1.32-0.43-1.18-2.07 0.7-1.28 1.46-0.73-0.12 1.43-4.14 1.96-3.66 3.99-9.33 4.63-13 1.82-10.37 3.17-15.01 4.16-14.4 0.51 0.32 0.62 1.55 0.24 2.74s-1.04 4.86-1.45 8.16c-0.93 7.35-6.26 27.22-7.68 28.64-0.72 0.72-1.24 0.71-1.69-0.02zm-150.56-9.37c0.01-1.82 0.2-1.96 0.99-0.75 1.25 1.94 1.25 3 0 3-0.55 0-1-1.01-0.99-2.25zm2.74-2.08c-0.42-1-0.74-3.03-0.72-4.5 0.02-2.32 0.16-2.43 1.06-0.89 0.57 0.98 0.89 3 0.72 4.5-0.26 2.28-0.44 2.42-1.06 0.89zm3.55-1.17c-0.56-1.1-1.34-3.35-1.71-5-0.38-1.65-0.94-3.84-1.25-4.87-1.27-4.28 1.62-0.26 3.16 4.39 1.75 5.28 1.62 9.01-0.2 5.48zm140.7-1.17c0-1.66 2.47-7.33 3.2-7.33 1.07 0 1 1.11-0.3 4.86-0.96 2.74-2.9 4.39-2.9 2.47zm-137.36-1.33c-0.26-0.82-0.72-2.62-1.02-4-0.29-1.37-1.04-4.77-1.67-7.55-1.07-4.74-0.98-5.33 1.55-9.5 2.73-4.51 8.24-9.45 10.56-9.45 2.48 0 1.89 2.03-0.95 3.29-1.59 0.71-4.12 3.14-5.62 5.4-2.29 3.46-2.65 4.89-2.25 9.01 0.52 5.36 4.24 10.39 8.48 11.45 1.25 0.31 2.28 0.97 2.28 1.46 0 1.43-4.37 1.03-6.72-0.62-1.97-1.38-2.26-1.35-3.16 0.25-0.83 1.48-1.07 1.52-1.48 0.26zm70.8-2.89c0.09-0.88 0.66-2.73 1.26-4.11 3.46-7.87 6.3-15.3 6.3-16.48 0-1.95-4.77-7.34-7.93-8.98-1.48-0.76-4.13-2.85-5.87-4.64-3.36-3.44-5.82-3.34-2.7 0.1 2.06 2.29 1.32 3.93-0.94 2.06-1.95-1.62-3.8-0.39-3.04 2.03 0.34 1.07 0.14 1.91-0.46 1.91-0.58 0-1.06 0.68-1.06 1.5 0 0.83 0.69 1.5 1.53 1.5s2.48 1.61 3.64 3.58c1.37 2.32 2.37 3.16 2.84 2.4 0.89-1.44 3.99 2.59 3.99 5.19 0 3.85-7.58 6.2-12.14 3.76-1.63-0.87-2.44-0.63-4.35 1.25-5.09 5.05-9.82 8.33-12.25 8.53-2.9 0.22-7.43-1.87-10.35-4.8-1.09-1.09-2.37-1.74-2.84-1.45-0.46 0.29-1.4-0.15-2.08-0.97-1.78-2.14-3.47-1.83-4.94 0.9-2.82 5.28-9.46 5.84-10.7 0.89-0.85-3.39 0.59-5.56 4.48-6.73 2.17-0.66 3.19-1.6 3.23-3 0.07-1.95 0.12-1.93 1.16 0.2 1.3 2.71 4.36 3.17 3.29 0.5-1.66-4.12-1.49-4.49 0.45-1 2.21 3.98 4.56 5.12 3.6 1.75-1.66-5.87-1.39-5.94 1.39-0.35 1.68 3.38 3.73 6.4 4.55 6.72 1.91 0.73 1.94 0.88-0.99-5.74-3.35-7.58-2.33-7.16 1.52 0.62 3.11 6.32 5.51 9.54 6.41 8.65 0.27-0.27-0.54-2.53-1.81-5.02-1.26-2.49-2.59-5.4-2.96-6.45-0.64-1.82-0.59-1.82 0.9 0.07 0.87 1.1 2.68 4.14 4.02 6.75 1.34 2.62 3.11 4.75 3.92 4.75 2.07 0 1.87-1.3-1.07-7.11-3.47-6.85-2.48-8.7 1.15-2.15 1.6 2.88 3.44 5.24 4.1 5.25 1.75 0.02 2.63-1.89 1.5-3.28-1.69-2.08-4.14-8.71-3.21-8.71 0.48 0 1.15 0.87 1.49 1.92 0.33 1.06 1.54 3.1 2.67 4.54 1.63 2.07 2.35 2.38 3.46 1.46 1.88-1.56 1.8-2.02-1.14-6.53l-2.54-3.89 2.43 2.69c1.34 1.47 2.62 3.23 2.84 3.89 0.31 0.95 1.21 0.95 4.1-0.01 2.04-0.67 3.69-1.52 3.67-1.89-0.08-1.68-2.72-3.91-5.44-4.58-2.96-0.74-2.96-0.74-1.09 1.34 1.04 1.14 1.59 2.37 1.23 2.74-0.78 0.77-0.52 1.03-4.52-4.58-3.46-4.84-3.96-6.62-1.59-5.71 1.83 0.7 1.34-0.3-2.72-5.53-1.56-2-2.83-3.91-2.83-4.23 0-0.47 7.69 7.73 8.72 9.29 0.15 0.23 0.5 0.19 0.78-0.08 0.44-0.45-6.83-11.58-8.38-12.84-0.35-0.27-1.28-1.4-2.07-2.5-0.8-1.1 0.57-0.08 3.03 2.25 4.18 3.96 6.84 5.56 5.42 3.27-0.36-0.59 0.08-0.73 1.08-0.34 2.85 1.09 1.3-1.18-6.9-10.14-9.39-10.25-8.81-11.44 0.75-1.54 3.71 3.85 6.94 7 7.16 7s0.41-0.73 0.41-1.62-3.64-5.35-8.09-9.9c-7-7.17-7.82-8.37-6.11-8.91 1.25-0.4 5.31 0.9 11.08 3.54 8.19 3.76 9.12 4.45 9.12 6.87 0 3.58-0.92 4.3-3.42 2.7-3.15-2-5.58-2.73-5.58-1.65 0 0.53 1.63 1.75 3.63 2.72 2.01 0.96 3.54 2.2 3.4 2.75-0.13 0.55-0.64 0.89-1.13 0.75-0.5-0.13-0.9-0.08-0.9 0.12 0 0.72 10.84 11.63 11.55 11.63 1.84 0 10.25 7.48 11.94 10.62 1.58 2.93 1.72 4.15 0.84 7.45-0.74 2.74-0.74 3.93-0.01 3.93 0.58 0-0.24 1.35-1.81 2.99-3.71 3.87-2.71 4.89 1.4 1.43 4.95-4.16 4.96-1.88 0.02 3.15-5.34 5.45-9.74 8.02-9.49 5.54zm-7.94-14.11c0.34-0.55 0.14-1-0.45-1-0.58 0-1.05 0.45-1.05 1s0.19 1 0.44 1c0.24 0 0.72-0.45 1.06-1zm-5.5-41.01c0-0.55-3.49-2.63-7.75-4.61-4.27-1.99-8.2-3.86-8.75-4.16-0.55-0.29 0.12 0.72 1.5 2.26 2.35 2.64 11.02 7.34 13.75 7.47 0.68 0.03 1.25-0.4 1.25-0.96zm27 55.31c0-0.52 1.18-2.04 2.63-3.37 2.35-2.16 2.52-2.2 1.56-0.34-1.29 2.48-4.19 5.05-4.19 3.71zm-6-1.18c0-0.49 1.12-1.62 2.5-2.52 2.89-1.9 3.36-0.69 0.67 1.75-2.03 1.83-3.17 2.11-3.17 0.77zm-66-38.91c0-0.53 0.72-1.56 1.61-2.3 1.4-1.16 1.57-1.09 1.25 0.54-0.38 1.95-2.86 3.47-2.86 1.76zm-102-3.58c0-0.21 0.78-1 1.75-1.75 1.58-1.25 1.62-1.21 0.37 0.37-1.3 1.67-2.12 2.2-2.12 1.38zm100-1.76c0-1.88 4.35-8.31 4.77-7.04 0.22 0.64-0.58 2.75-1.77 4.67-2.27 3.68-3 4.25-3 2.37zm-4-5.41c0-1.12 8.38-12.4 8.86-11.93 0.57 0.57-3.42 8.12-5.67 10.72-1.45 1.69-3.19 2.34-3.19 1.21zm-3-4.21c0-1.17 6.91-12.34 10.23-16.54 4.28-5.41 4.6-3.82 0.5 2.48-1.91 2.92-4.7 7.45-6.2 10.06-2.43 4.23-4.54 6.1-4.53 4zm56-4.84c-11.16-4.94-22.15-10.59-21.63-11.11 0.72-0.73 26.56 10.88 26.6 11.95 0.04 1.09-1.03 0.91-4.97-0.84zm-4-6.76c-9.88-4.36-14.29-6.69-13.73-7.26 0.26-0.25 2.73 0.43 5.49 1.52s5.22 1.77 5.47 1.52c0.97-0.96 11.77 4.6 11.77 6.06 0 2.04-0.37 1.96-9-1.84zm104-12.63c0-1.19 6.15-5.19 6.88-4.47 0.48 0.49-2.04 2.71-5.13 4.51-1.21 0.7-1.75 0.69-1.75-0.04zm-32.93-9.6c0.05-1.16 0.29-1.4 0.61-0.6 0.29 0.72 0.25 1.58-0.08 1.91-0.33 0.34-0.57-0.25-0.53-1.31zm-201.1-15.39c1.17-1.63 2.63-3.28 3.25-3.67 0.63-0.38-0.12 0.95-1.66 2.97-3.34 4.39-4.6 4.94-1.59 0.7zm-2.97-23.03c2.24-3.3 4.31-6 4.59-6 0.66 0-0.12 1.29-4.39 7.25-4.87 6.83-5.03 5.87-0.2-1.25zm221-11c-0.91-0.58-1.03-0.97-0.31-0.98 0.65-0.01 1.47 0.43 1.81 0.98 0.76 1.25 0.42 1.25-1.5 0zm-58-59.41c0-6.23-2.4-10.4-7.21-12.54-3.85-1.71-4.02-1.91-1.59-1.98 6.3-0.16 10.42 3.88 11.42 11.22 0.45 3.25 0.2 4.62-1.02 5.63-1.42 1.18-1.6 0.92-1.6-2.33zm14 356.11c0-1.43-1.95-3.7-3.18-3.7-0.43 0-0.27 1.13 0.36 2.5 1.21 2.67 2.82 3.35 2.82 1.2zm-72.34-2.26c0.79-2.06-1.28-4.22-2.7-2.8-1.14 1.14-0.28 4.36 1.17 4.36 0.51 0 1.2-0.7 1.53-1.56zm77.02-2.62c-0.32-0.8-0.56-0.56-0.61 0.6-0.04 1.06 0.2 1.65 0.53 1.31 0.33-0.33 0.37-1.19 0.08-1.91zm-90.7-1.07c-0.01-0.68-0.45-1.92-0.98-2.75-0.76-1.16-0.98-0.89-0.99 1.25-0.01 1.52 0.44 2.75 0.99 2.75s0.99-0.56 0.98-1.25zm-39.89-6.05c-1.31-1.31-1.49 0.14-0.37 2.97 0.69 1.77 0.73 1.77 1.09-0.02 0.21-1.02-0.12-2.35-0.72-2.95zm-117.88 1.12c2.17-0.65 6.16-3.26 8.866-5.8 4.157-3.9 4.925-4.3 4.961-2.57 0.034 1.72 0.618 1.41 3.629-1.95 3.853-4.29 7.913-12.14 8.943-17.31 0.94-4.72-0.73-3.87-4.05 2.07-3.62 6.47-13.43 16.44-19.925 20.23-3.85 2.24-6.035 2.82-10.5 2.76-3.102-0.03-6.902-0.55-8.446-1.15-4.427-1.72-2.195 0.77 2.68 2.99 4.813 2.18 8.37 2.37 13.842 0.73zm423.28-7.95c0.47-9.01-1.16-16.64-4.44-20.84-1.52-1.94-3.36-4.65-4.08-6.02-0.77-1.48-1.48-1.99-1.72-1.25-0.23 0.68 0.54 2.8 1.72 4.71 3.94 6.37 6.96 18.76 6.43 26.35-0.29 3.99-0.09 5.27 0.68 4.5 0.59-0.59 1.23-3.94 1.41-7.45zm-170.51 4.27c-0.01-0.9-0.41-2.26-0.9-3.03-0.68-1.08-1.24-0.71-2.44 1.62-0.86 1.66-1.33 3.25-1.05 3.54 1.07 1.06 4.41-0.56 4.39-2.13zm183.92 0.29c5.29-4.45 7.28-14.81 5.09-26.54-1.42-7.61-2.75-10.42-5.7-12-2.98-1.59-6.53-6.85-8.03-11.89-2.49-8.4-3.6-15.17-2.6-15.83 0.56-0.36 1.99-3.82 3.17-7.67s4.18-10.6 6.67-15c14.42-25.44 16.92-33.81 14.19-47.42-1.97-9.85-6.48-19.21-11.94-24.8-2.27-2.33-4.33-4.04-4.56-3.8-0.24 0.24 2.1 4.7 5.21 9.91s6.53 12.03 7.61 15.15c3.45 10.03 3.57 23.1 0.22 24.22-0.8 0.27-1.15-1.59-1.11-6.01 0.03-3.52-0.48-8.34-1.12-10.72-1.53-5.69-5.88-15.48-6.57-14.79-0.3 0.3 0.19 3.37 1.08 6.83 2.63 10.15 3.01 18.85 1.06 24.7-0.92 2.8-2.28 5.57-3 6.18-0.73 0.6-1.61 2.77-1.95 4.82-0.86 5.04-3.86 8.72-7.17 8.78-2.6 0.05-2.65-0.06-2.12-5 0.49-4.63 0.45-4.76-0.49-1.55-3.61 12.43-5.24 16.7-6.96 18.19-1.82 1.58-1.88 2.28-0.88 11 2.4 20.98 5.16 33.28 9.01 40.05 0.54 0.96 0.99 2.48 0.99 3.39s0.71 2.18 1.58 2.81c3.39 2.48 5.9 22.93 3.38 27.63-1.54 2.88 1.18 2.52 4.94-0.64zm-29.9-0.43c0-0.55-0.48-1-1.06-1-0.59 0-0.78 0.45-0.44 1s0.81 1 1.05 1c0.25 0 0.45-0.45 0.45-1zm-131.66-3.79c-0.32-1.21-1.2-2.21-1.96-2.21-1.83 0-1.75 0.95 0.28 3.18 2 2.22 2.45 1.96 1.68-0.97zm110.71 0.23c0.72-0.86 2.6-2.24 4.19-3.06 2.55-1.32 2.81-1.87 2.22-4.69-2.1-10.05-7.38-15.4-6.12-6.2 0.62 4.53-0.83 11.51-2.39 11.51-0.53 0-0.95 0.9-0.95 2 0 2.4 1.27 2.58 3.05 0.44zm-88.76-5.44c-0.29-1.1-0.92-2-1.41-2-1.05 0-1.08 0.32-0.28 2.42 0.88 2.3 2.3 1.95 1.69-0.42zm84.51-2.85c-1.45-0.55-1.92 0.4-1.15 2.39 0.66 1.73 0.73 1.72 1.39-0.11 0.38-1.06 0.27-2.09-0.24-2.28zm-114.44 0.35c-0.32-0.82-0.75-1.5-0.97-1.5s-0.39 0.68-0.39 1.5c0 0.83 0.43 1.5 0.96 1.5 0.54 0 0.71-0.67 0.4-1.5zm-227.48-5.5l-0.08-2.5-0.8 2.5c-0.44 1.38-0.84 3.18-0.89 4-0.07 1.34 0.02 1.34 0.89 0 0.53-0.82 0.93-2.62 0.88-4zm258.1 0.75c-0.03-2.67-1.25-5.7-2.1-5.18-1.03 0.64-1.19 4.79-0.22 5.77 1.08 1.08 2.34 0.76 2.32-0.59zm-169.48-2.75c0.34-0.55 0.14-1-0.45-1-0.58 0-1.05 0.45-1.05 1s0.19 1 0.44 1c0.24 0 0.72-0.45 1.06-1zm-118.09-10.65c2.026-4.21 3.548-8.6 3.381-9.75-0.317-2.19-1.873 0.55-6.7 11.78-2.387 5.56-2.401 5.62-1.231 5.62 0.476 0 2.523-3.44 4.55-7.65zm389.94-5.6c-1.48-2.88-3.49-7.72-4.47-10.75-2.13-6.58-2.45-3.73-0.44 3.85 1.39 5.2 5.28 12.13 6.82 12.15 0.42 0-0.44-2.36-1.91-5.25zm-87.87-5.5c-1.12-6.97-1.54-8.33-2.42-7.79-0.48 0.3-0.72 1.33-0.53 2.3 0.2 0.96 0.63 3.43 0.96 5.49 0.33 2.07 1.05 3.75 1.6 3.75 0.59 0 0.75-1.51 0.39-3.75zm-149.05-0.13c0.65-1.06-2.22-3.67-3.08-2.8-0.84 0.83 0.37 3.68 1.56 3.68 0.53 0 1.21-0.39 1.52-0.88zm5.01-3.34c1.77-2.53 1.98-3.78 0.62-3.78-0.51 0-1.21 0.9-1.56 2-0.74 2.31-2.5 2.7-2.5 0.56 0-1.74-1.65-2.93-2.4-1.73-0.55 0.9 2.39 5.14 3.59 5.16 0.38 0.01 1.39-0.99 2.25-2.21zm136.08-13.29c-0.55-7.29-1.01-9.4-1.87-8.54-1.27 1.27-2.24 17.08-1.22 19.74 0.58 1.53 0.78 1.53 2.23 0.08 1.34-1.34 1.47-3.1 0.86-11.28zm-218.72 8.44c0.15-1.88-0.16-2.83-0.78-2.44-1.15 0.71-1.38 3.83-0.36 4.85 0.93 0.92 0.88 1.01 1.14-2.41zm96.23 0.05c1.28-1.12 3.49-2.28 4.9-2.58 14.14-3 19.75-5.2 10.14-3.97-6.44 0.82-19.24 5.55-19.83 7.32-0.64 1.94 2.19 1.48 4.79-0.77zm-15.28-2.56c-0.96-0.95-2.87 0.59-2.16 1.74 0.42 0.68 0.98 0.67 1.7-0.05 0.59-0.59 0.79-1.35 0.46-1.69zm233.7-6.33c-2.03-8.35-3.97-9.55-2.95-1.84 0.65 5.01 3.08 10.5 4.16 9.42 0.28-0.28-0.27-3.69-1.21-7.58zm-187.72 5.31c-0.34-0.33-1.2-0.37-1.92-0.08-0.8 0.32-0.56 0.56 0.6 0.61 1.06 0.04 1.65-0.2 1.32-0.53zm13.14-4.71c4.46-5.2 5.93-9.63 2.02-6.09-2.91 2.62-5.49 6.42-6.39 9.4-0.41 1.38-0.53 2.28-0.25 2 0.27-0.27 2.35-2.66 4.62-5.31zm2.13 4.9c0-0.23-0.28-1.15-0.62-2.03-0.48-1.24-0.93-1.35-2-0.46-1.98 1.64-1.71 2.9 0.62 2.9 1.1 0 2-0.18 2-0.41zm-64.28-2.53c-0.31-1.2 0.04-2.07 0.93-2.25 2.9-0.61-1.03-3.56-5.46-4.1-4.85-0.6-4.89-0.28-0.7 4.72 3.29 3.93 6.06 4.79 5.23 1.63zm4.73 1.01c0.32-0.51 0.12-1.21-0.44-1.56-0.56-0.34-1.01 0.08-1.01 0.94 0 1.75 0.6 2.01 1.45 0.62zm7.57-1.32c1.92-2.05 1.95-2.28 0.36-2.6-0.96-0.2-2.34 0.45-3.07 1.44-2.8 3.82-0.64 4.75 2.71 1.16zm133.68-1.25c-0.1-3.41-0.99-4.46-2.18-2.54-0.75 1.22 0.44 6.04 1.49 6.04 0.43 0 0.74-1.57 0.69-3.5zm-348.6 0.33c5.243-1.8 10.73-5.78 12.292-8.91l1.413-2.83-2.434 1.59c-3.875 2.54-4.049 0.63-0.304-3.35l3.432-3.65-3.75 2.24c-5.141 3.08-5.082 0.49 0.083-3.66 2.109-1.7 3.834-3.73 3.834-4.53 0-0.79-2.593 1.33-5.761 4.72-7.445 7.95-13.939 11.21-24.156 12.11-4.263 0.37-7.75 1.06-7.75 1.53 0 0.98 3.535 3.05 4.158 2.42 0.232-0.23 3.104 0.44 6.382 1.48 7.147 2.29 8.174 2.35 12.561 0.84zm251.39 0.19c0.35-0.57-0.05-0.74-0.94-0.4-1.73 0.67-2.05 1.38-0.61 1.38 0.51 0 1.21-0.44 1.55-0.98zm-235.49-6.16c3.775-3.38 8.33-8.22 10.121-10.75l3.256-4.61-4.941 4.55c-2.718 2.51-6.405 5.42-8.192 6.47-1.788 1.05-3.25 2.69-3.25 3.63s-1.463 2.86-3.25 4.27c-1.788 1.41-2.656 2.57-1.929 2.57 0.726 0.01 4.41-2.75 8.185-6.13zm244.87 0.99c1.18-2.84 1.97-5.34 1.75-5.55-1.01-1.01-5.48 4.56-6 7.45-0.92 5.22 1.8 4 4.25-1.9zm-50.1 2.34c0.24-0.72-0.67-1.19-2.31-1.19-2.32 0-2.53 0.22-1.44 1.54 1.4 1.68 3.13 1.52 3.75-0.35zm-169.02-1.44c-0.82-1.23-2.337-2.38-3.372-2.53-1.425-0.22-1.155 0.32 1.12 2.24 3.699 3.12 4.169 3.19 2.252 0.29zm212.22 0.29c2.67-1.69 0.45-2.03-4.05-0.62l-4.42 1.39 3.5 0.08c1.92 0.05 4.16-0.33 4.97-0.85zm104.6-6.63l0.07-6.59-1.78 3.34c-2.24 4.21-2.28 5.72-0.21 8.02 0.91 1 1.7 1.82 1.75 1.82s0.13-2.96 0.17-6.59zm-137.57 3.55c9.14-1.8 26.18-3.94 31.42-3.95 7.83-0.01 8.52-1.21 6.66-11.48-1.37-7.57-1.83-8.61-4.06-9.35-2.25-0.75-7.82-0.02-12.02 1.57-0.83 0.32-1.92 0.47-2.43 0.36-0.51-0.12-3.21 0.33-6 1.01s-8.45 1.27-12.57 1.31c-6.24 0.06-8.6 0.6-14 3.18-3.58 1.71-7.58 3.99-8.9 5.08-2.31 1.9-2.35 2.13-1 6.35 1.37 4.29 1.53 4.42 7.9 6.03 3.57 0.9 7.17 1.49 8 1.31 0.82-0.19 3.97-0.83 7-1.42zm-19.37-4.21c-0.34-1.23-0.6-3.15-0.59-4.25 0.01-1.6 0.18-1.7 0.85-0.5 1.4 2.53 2.2 7 1.24 7-0.49 0-1.17-1.01-1.5-2.25zm6.05-1.28c-1.86-3.89-2.11-5.47-0.87-5.47 0.86 0 4.19 6.39 4.19 8.04 0 2.11-1.72 0.78-3.32-2.57zm144.32 4.53c0-1.65-0.42-3-0.94-3-1.21 0-2.37 3.69-1.57 5 1.22 1.97 2.51 0.96 2.51-2zm-316 1c0-0.55-0.477-1-1.059-1-0.583 0-0.781 0.45-0.441 1s0.816 1 1.059 1c0.242 0 0.441-0.45 0.441-1zm240.47-16.41c-1.71-4.09-2.99-4.8-2.08-1.14 0.83 3.29-0.84 6.55-4.89 9.55-3.24 2.4-5.5 5.8-5.5 8.25 0 0.64 3.14-2.04 6.98-5.95l6.99-7.12-1.5-3.59zm72.6 11.27c3.19-6.26 1.2-16.97-2.04-10.92-1.01 1.89-1.5 15.06-0.55 15.06 0.26 0 1.43-1.86 2.59-4.14zm-61.32-10.72c3.25-2.28 4.21-4.14 2.14-4.14-0.61 0-1.99 1.13-3.07 2.5-1.08 1.38-2.63 2.5-3.44 2.5-2.29 0-11.38 9.03-11.38 11.3 0 1.61 1.27 0.81 6.25-3.93 3.43-3.27 7.71-6.98 9.5-8.23zm-254.74 11.34c1.057-1.27 0.995-1.42-0.378-0.89-0.902 0.34-1.641 1.03-1.641 1.52 0 1.29 0.579 1.11 2.019-0.63zm162.96-0.23c-0.02-2.15-1.66-4.9-2.46-4.11-0.63 0.64 1.1 5.86 1.95 5.86 0.29 0 0.52-0.78 0.51-1.75zm146.69-16.43c0.26-12.29 0.11-14.02-1.12-12.77-1.48 1.52-1.79 5.42-1.64 20.4 0.07 6.9 0.36 8.68 1.27 7.77 0.77-0.77 1.29-6.15 1.49-15.4zm14.83 9.82c0.91-2.39 1.48-5.65 1.27-7.24-0.38-2.86-0.42-2.84-2.56 1.6-2.16 4.49-3.04 11.63-1.29 10.55 0.5-0.31 1.67-2.52 2.58-4.91zm-92.52 0.11c-0.04-3.86-2.52-12.09-3.78-12.51-1.52-0.51-1.52 1.62 0 8.95 1.18 5.73 3.82 8.22 3.78 3.56zm4.76-2c-0.25-0.68-1.07-2.93-1.8-5-0.74-2.06-1.71-3.75-2.15-3.75-1.02 0-1.01 0.27 0.32 5.56 0.7 2.77 1.69 4.44 2.61 4.44 0.82 0 1.28-0.56 1.02-1.25zm94.44-6.38c-0.84-1.51-1.02-1.45-1.65 0.52-0.42 1.34-0.17 2.85 0.63 3.83 1.21 1.46 1.37 1.41 1.65-0.52 0.18-1.18-0.11-2.9-0.63-3.83zm-82.68 3.63c0.34-0.55 0.16-1-0.39-1s-1.27 0.45-1.61 1-0.17 1 0.38 1 1.28-0.45 1.62-1zm74.51-5.02c1.8-3.53 1.91-4.51 0.86-8-1.34-4.49-2.36-5.03-3.24-1.73-0.72 2.68-0.84 13.75-0.15 13.75 0.26 0 1.4-1.81 2.53-4.02zm-158.51 2.02c0.34-0.55 0.14-1-0.45-1-0.58 0-1.05 0.45-1.05 1s0.19 1 0.44 1c0.24 0 0.72-0.45 1.06-1zm150.94-4.08c1.41-2.79 2.54-6.28 2.52-7.75-0.03-2.56-0.09-2.59-1.5-0.72-0.8 1.06-1.46 3.16-1.46 4.66s-0.42 2.88-0.93 3.06c-1.01 0.37-2.64 5.83-1.74 5.83 0.31 0 1.71-2.28 3.11-5.08zm2.24 0.9c-0.32-0.8-0.56-0.56-0.61 0.6-0.04 1.06 0.2 1.65 0.53 1.31 0.33-0.33 0.37-1.19 0.08-1.91zm-65.99-8.55c-1.54-1.54-1.69-1.55-1.69-0.06 0 0.89 0.56 1.83 1.25 2.07 2.04 0.73 2.24-0.21 0.44-2.01zm64.22-3.27c2.67-7.03 2.78-18 0.18-18-2.11 0-4.92 16.56-3.67 21.57 0.83 3.3 0.92 3.21 3.49-3.57zm109.57-2.61c0.29-3.24 0.3-5.44 0.03-4.89-1.2 2.38-3.29 12.05-2.79 12.87 0.99 1.59 2.21-1.96 2.76-7.98zm-212.01-2.24c-0.66-0.66-6.47 4.95-6.47 6.24 0 0.55 1.56-0.51 3.48-2.37s3.26-3.6 2.99-3.87zm112.73 2.39c0-1.97-0.5-4.18-1.1-4.9-0.6-0.73-0.82-1.58-0.5-1.9s0.26-1.6-0.14-2.84c-0.71-2.25-0.72-2.25-2.17 0.5-1.72 3.3-1.07 5.84 1.28 4.94 1.32-0.51 1.52-0.21 1 1.43-0.67 2.1 0.27 7.72 1.15 6.85 0.26-0.27 0.48-2.1 0.48-4.08zm-246.96-1.93c1.56-3.27 1.54-3.46-0.71-5.57-1.6-1.51-2.54-1.83-3.03-1.04-0.86 1.4 0.32 10 1.37 10 0.42 0 1.48-1.52 2.37-3.39zm251.76-3.05c0-2.44-0.45-4.72-1-5.06-0.62-0.38-1 1.33-1 4.45 0 2.78 0.45 5.05 1 5.05s1-1.99 1-4.44zm-343.32 1.26c-0.319-0.8-0.556-0.56-0.604 0.6-0.044 1.06 0.193 1.65 0.525 1.31 0.332-0.33 0.368-1.19 0.079-1.91zm322.76-4.24c1.05-6.85 1.19-14.62 0.26-14.31-0.54 0.18-1.81 2.46-2.84 5.08-1.43 3.64-1.72 6.06-1.21 10.35 0.58 4.98 0.8 5.4 1.99 3.78 0.73-1 1.54-3.21 1.8-4.9zm-226.44-2.11c0-2.69-2.64-7.47-4.12-7.47-1.47 0-1 4 0.83 7.1 2.11 3.58 3.29 3.71 3.29 0.37zm170.12 0.27c-0.99-0.98-1.1-0.87-0.56 0.56 0.38 0.98 0.93 1.54 1.24 1.23s0-1.11-0.68-1.79zm68.25-3.07c0.32-1.3-0.03-4.34-0.79-6.76l-1.39-4.41 0.01 7.25c0.01 7.02 0.96 8.73 2.17 3.92zm-342.37-0.17c0-1.37-0.45-2.5-1-2.5-2.224 0-0.77-2.85 3-5.88 2.2-1.76 4-3.86 4-4.66 0-2.17-0.754-1.81-4.101 2.01-1.671 1.9-4.657 4.46-6.635 5.68l-3.596 2.22 2.36 1.57c1.297 0.86 2.835 2.11 3.416 2.78 1.669 1.91 2.556 1.49 2.556-1.22zm-11.5 0.5c-0.34-0.55-1.068-1-1.618-1s-0.722 0.45-0.382 1 1.068 1 1.618 1 0.722-0.45 0.382-1zm357.16-3.25c-0.28-0.68-0.51-0.12-0.51 1.25 0 1.38 0.23 1.94 0.51 1.25 0.28-0.68 0.28-1.81 0-2.5zm-238.7-2.69c-0.04-1.93-2.33-5.06-3.71-5.06-1.84 0-2.18 4.25-0.58 7.35 1.5 2.88 1.64 2.94 2.95 1.15 0.76-1.03 1.36-2.58 1.34-3.44zm228.46-2.19c-0.95-1.53-2.4 1.01-2.37 4.13l0.03 2.5 1.5-2.77c0.83-1.52 1.2-3.26 0.84-3.86zm-237.44-0.17c-0.02-2.93-1.5-5.12-2.87-4.26-1.37 0.84-1.39 1.71-0.12 5.06 1.14 2.99 3.01 2.48 2.99-0.8zm240.7 1.12c-0.32-0.8-0.56-0.56-0.61 0.6-0.04 1.06 0.2 1.65 0.53 1.31 0.33-0.33 0.37-1.19 0.08-1.91zm117.32-10.13c-1.75-9.9-2.29-7.54-0.79 3.43 0.76 5.51 1.43 8.15 1.64 6.38 0.19-1.65-0.19-6.06-0.85-9.81zm-110.4 8.74c0.37-1.45 0.16-3.06-0.48-3.7-0.62-0.62-1.12-2.48-1.12-4.14 0-2.63-0.19-2.83-1.43-1.55-1.16 1.19-1.23 2.46-0.37 6.71 1.16 5.73 2.39 6.7 3.4 2.68zm-14.69-6.65c1.2-3.45 2.65-7.63 3.22-9.28 2.94-8.45 3.42-17.5 0.94-17.5-0.72 0-2.35 8.38-2.53 13-0.04 0.83-0.58 2.41-1.22 3.53-1.31 2.29-4.32 13.4-4.32 15.93 0 3.12 1.73 0.6 3.91-5.68zm-220.88 4.16c1.54-2.88-1.41-7.7-3.6-5.88-1.75 1.45-1.87 5.11-0.23 6.74 1.69 1.7 2.56 1.5 3.83-0.86zm229.01-3.94c1.86-7.21 2.27-12.09 1.11-13.25-1.55-1.54-3.45 3.91-2.8 8 0.29 1.79 0.15 3.25-0.3 3.25-1.05 0-2.01 4.94-1.32 6.76 0.79 2.05 2.01 0.3 3.31-4.76zm11.54 1.25c-1.16-1.15-1.75 0.66-0.96 2.93l0.8 2.32 0.37-2.33c0.2-1.29 0.11-2.6-0.21-2.92zm112.11 1.02c-0.25-0.97-0.48-0.42-0.5 1.23s0.19 2.45 0.46 1.77c0.28-0.67 0.29-2.02 0.04-3zm-361.14-0.44c0.38-1.19 1.54-3.08 2.57-4.19 2.32-2.49 2.32-3.5-0.01-6.53-3.11-4.04-5.68 0.1-3.08 4.96 0.6 1.11 0.64 1.93 0.11 1.93-0.51 0-1.2-0.7-1.53-1.56-0.79-2.05-2.61-0.87-2.61 1.69 0 2.44 1.73 5.87 2.96 5.87 0.5 0 1.21-0.97 1.59-2.17zm-7.55-1.26c0-2.43-1.9-6.57-3.01-6.57-1.93 0-2.24 2.98-0.58 5.51 1.8 2.76 3.59 3.28 3.59 1.06zm258.6-5.29c-1.02-1.02-1.86 0.51-1.02 1.86 0.63 1.02 0.86 1.02 1.2 0 0.23-0.69 0.15-1.53-0.18-1.86zm-256.16-4.38c-0.82-1.59-1.93-2.9-2.47-2.9-1.3 0-1.24 3.64 0.1 6.13 0.84 1.58 1.36 1.76 2.47 0.84 1.2-1 1.19-1.58-0.1-4.07zm232.05 1.35c0.33-2.06 0.78-4.98 1.02-6.5 0.61-3.82-0.12-3.43-2.57 1.37-1.3 2.55-1.87 5.02-1.5 6.5 0.89 3.55 2.39 2.88 3.05-1.37zm-239.08 0.9c0.79-1.29-1.71-7.21-2.89-6.83-0.56 0.19-1.17 1.34-1.35 2.57-0.49 3.34 2.78 6.62 4.24 4.26zm11.59-6.61c0-1.23-0.87-3.01-1.92-3.96-1.83-1.66-1.98-1.65-3 0.27-1.08 2.01-0.64 4.54 1.2 6.92 1.36 1.75 3.72-0.3 3.72-3.23zm-8.03-0.79c-0.01-0.68-0.84-2.32-1.85-3.63-2.42-3.15-3.79-1.06-1.55 2.36 1.77 2.7 3.44 3.32 3.4 1.27zm-9.2-5.41c-1.71-2.89-2.24-3.25-2.97-1.95-0.57 1.02-0.32 2.66 0.72 4.66 1.26 2.45 1.89 2.86 2.97 1.96 1.14-0.94 1.02-1.72-0.72-4.67zm263.16 0.41c0.03-0.41-0.38-0.75-0.93-0.75s-0.97 1.24-0.93 2.75c0.06 2.44 0.16 2.53 0.93 0.75 0.47-1.1 0.89-2.33 0.93-2.75zm3.75-0.93c-0.32-0.8-0.56-0.56-0.61 0.6-0.04 1.06 0.2 1.65 0.53 1.31 0.33-0.33 0.37-1.19 0.08-1.91zm-338.55-9.66c-0.817-2.23-0.971-1.69-0.962 3.34 0.01 5.51 0.091 5.73 0.974 2.66 0.619-2.15 0.615-4.29-0.012-6zm75.873 7.46c0-1.73-3.92-6.58-3.97-4.91-0.05 1.82 2.17 6.29 3.13 6.29 0.46 0 0.84-0.62 0.84-1.38zm255-5.81c0-1.54-0.45-2.81-1-2.81s-1.01 1.02-1.02 2.25c-0.01 1.24-0.26 3.38-0.57 4.75-0.54 2.42-0.51 2.44 1.01 0.56 0.87-1.06 1.58-3.2 1.58-4.75zm-337 1.1c0-3.26-2.291-7.42-4.572-8.29-1.245-0.48-1.237-0.15 0.06 2.36 0.832 1.61 1.512 4.22 1.512 5.81 0 1.58 0.288 3.17 0.639 3.52 1.216 1.22 2.361-0.43 2.361-3.4zm73.194-0.38c-1.7-3.72-3.25-3.2-2.12 0.72 0.51 1.78 0.93 3.45 0.93 3.7s0.52-0.07 1.17-0.72c0.89-0.89 0.89-1.78 0.02-3.7zm269.71-5.78c0.15-4.13-1.62-3.3-2.14 1-0.59 4.8 0.35 7.79 1.34 4.25 0.38-1.37 0.74-3.73 0.8-5.25zm-266.87-0.69c-0.61-1.13-1.52-2.06-2.04-2.06-1.04 0-0.26 2.77 1.37 4.86 1.51 1.93 2.02-0.26 0.67-2.8zm271.76-2.98c0.13-1.69-0.22-3.08-0.78-3.08s-1.01 1.61-1.01 3.56c0 4.28 1.46 3.88 1.79-0.48zm-8.34-4.33c0.41-3.43 0.31-5.75-0.26-5.75-1.12 0-2.19 4.81-2.19 9.83 0 5.35 1.66 2.6 2.45-4.08zm13.55 0.09c0-3.64-0.44-3.51-1.38 0.41-0.39 1.64-0.25 2.75 0.36 2.75 0.56 0 1.02-1.42 1.02-3.16zm-353.7 0.23c-0.699-2.67-2.034-2.93-7.808-1.52l-5 1.22 4 0.13c2.2 0.07 4.675 0.57 5.5 1.1 2.42 1.57 3.854 1.16 3.308-0.93zm-14.058 0.27c-0.688-0.28-1.813-0.28-2.5 0-0.688 0.28-0.125 0.51 1.25 0.51s1.937-0.23 1.25-0.51zm24.933-1.55c-0.717-0.72-1.183-0.78-1.183-0.15 0 1.33 1.182 2.52 1.85 1.85 0.284-0.29-0.016-1.05-0.667-1.7zm334.82-3.23c0-1.89-0.45-3.72-1-4.06-0.61-0.37-1 0.99-1 3.45 0 2.23 0.45 4.05 1 4.05s1-1.54 1-3.44zm109-2.06c0-0.82-0.73-1.5-1.63-1.5-1.33 0-1.39 0.28-0.37 1.5 0.68 0.83 1.41 1.5 1.62 1.5s0.38-0.67 0.38-1.5zm9.41-4.33c-2.79-1.55-6.74-4.07-8.77-5.63-2.04-1.55-3.93-2.58-4.22-2.29-0.77 0.77 6.44 6.48 11.08 8.77 6.11 3.03 7.68 2.33 1.91-0.85zm-122.94-2.06c0.24-1.2 0-1.9-0.53-1.57-0.52 0.32-0.94 1.53-0.94 2.69 0 2.55 0.9 1.87 1.47-1.12zm-329.47-4.01c4.125-2.7 10.2-7.76 13.5-11.24s4.425-4.94 2.5-3.24c-5.875 5.2-16.981 13.33-21.032 15.4-2.108 1.08-4.115 2.41-4.459 2.97-1.422 2.3 2.438 0.72 9.491-3.89zm-20.5 0.56l3-1.68-3.75 0.51c-2.063 0.28-5.359 0.77-7.326 1.07-2.021 0.32-4.163 0.08-4.926-0.56-0.743-0.61-3.296-0.98-5.674-0.81l-4.324 0.31 3 1.78c3.8 2.25 15.514 1.88 20-0.62zm357.03-5.55c-0.37-1.16-1.09-2.11-1.6-2.11-1.08 0-1.22 2.1-0.3 4.49 0.93 2.42 2.71 0.18 1.9-2.38zm4.15-1.29c-0.32-0.8-0.56-0.56-0.61 0.6-0.04 1.06 0.2 1.65 0.53 1.31 0.33-0.33 0.37-1.19 0.08-1.91zm93.7-9.35c0.25-2.72 0.09-5.4-0.36-5.96-1.73-2.14-5.1-15.22-7.53-29.3-3.05-17.62-4.87-24.35-8.02-29.79-4.45-7.69-14.51-14.8-22.11-15.63-5.01-0.54-3.38 1.76 3.31 4.67 7.02 3.07 13.71 8.12 12.76 9.65-0.31 0.5-2.5-0.43-4.88-2.07-4.48-3.08-14.48-7.45-15.26-6.66-0.24 0.24 0.46 0.73 1.57 1.08 3.64 1.16 13.42 9.44 16.86 14.29 2.36 3.32 3.2 5.42 2.8 7.01-0.31 1.24 0.15 3.64 1.02 5.32 2.08 4.04 1.3 6.15-0.99 2.65-3.49-5.32-3.46-2.63 0.04 3.74 1.96 3.56 3.45 7.5 3.31 8.75-0.22 2.13 3.89 17.14 6.24 22.78 1.26 3.02 9.91 15.29 10.42 14.78 0.2-0.2 0.57-2.59 0.82-5.31zm-93.27 0.25c-0.82-0.82-1.11-0.71-1.11 0.42 0 1.99 1.34 3.33 1.84 1.84 0.21-0.63-0.12-1.65-0.73-2.26zm-336.26-4.97c6.991-9.35 11.413-19.93 11.56-27.65 0.076-4.01-0.245-4.62-3.667-6.88-2.063-1.36-3.75-2.81-3.75-3.21s1.923-1 4.274-1.32c4.909-0.67 31.24-13.97 32.1-16.21 0.74-1.94-1.76-1.92-3.37 0.02-0.69 0.83-1.69 1.5-2.23 1.5s-2.68 1.34-4.75 2.98c-4.04 3.2-11.515 6.78-16.782 8.04-2.376 0.57-3.469 0.4-4.036-0.61-0.61-1.09-1.519-1.17-4.241-0.36-1.906 0.56-6.39 1.03-9.965 1.03-8.366 0.02-13.159 1.32-14.849 4.04-1.223 1.97-1.176 2.1 0.5 1.43 3.397-1.37 9.183-1.8 13.036-0.98 3.669 0.78 3.557 0.84-2.985 1.46-4.59 0.43-7.351 1.22-8.5 2.43-1.619 1.71-1.568 1.76 1.049 1.15 11.383-2.66 17.422-1.49 20.849 4.06 2.049 3.31 2.11 3.95 0.981 10.27-1.336 7.48-4.623 15.29-8.661 20.58-1.462 1.92-2.169 3.48-1.571 3.48 0.597 0 2.851-2.36 5.008-5.25zm83.147-0.19c0-0.24-0.45-0.72-1-1.06s-1-0.14-1 0.45c0 0.58 0.45 1.05 1 1.05s1-0.19 1-0.44zm54.98-6.93c0.01-0.48-0.65-0.31-1.47 0.37-0.82 0.67-1.22 1.68-0.88 2.22 0.62 1.01 2.32-0.87 2.35-2.59zm-83.05-1.93c0.03-0.45-0.38-0.54-0.93-0.2s-0.97 1.61-0.93 2.81c0.06 2.12 0.1 2.12 0.93 0.19 0.47-1.1 0.89-2.36 0.93-2.8zm102.26-3.45c2.36-2.74 3.02-4.25 1.86-4.25-1.34 0-5.05 3.68-5.05 5 0 1.55 1.53 1.19 3.19-0.75zm-134.21-5.2c1.33-3.23 1-9.65-0.48-9.33-0.55 0.11-1.309 2.28-1.682 4.82-0.372 2.53-1.161 6-1.753 7.69-1.044 3-1.02 3.04 0.837 1.36 1.051-0.95 2.438-2.99 3.078-4.54zm309.07 1.05c-1.15-2.25-2.59-4.1-3.19-4.1-0.68 0-0.55 0.85 0.37 2.25 0.8 1.24 2.01 3.31 2.69 4.59s1.46 2.12 1.73 1.85-0.46-2.34-1.6-4.59zm-177.4-0.78c-0.85-0.85-3.65 1.03-3.65 2.45 0 1.3 0.31 1.26 2-0.27 1.11-1 1.84-1.98 1.65-2.18zm-97.49-0.35c0.19-0.84-0.11-1.64-0.66-1.78-0.55-0.13-1.15 1-1.33 2.53-0.34 2.89 1.34 2.26 1.99-0.75zm52.8 0.58c1.48-1.79 0.54-3.55-1.9-3.55-2.2 0-4.48 2.52-3.59 3.96 0.94 1.52 4.09 1.28 5.49-0.41zm98.04-1.55c0-0.55-0.45-1-1-1s-1 0.45-1 1 0.45 1 1 1 1-0.45 1-1zm-51-2.5c0.69-0.83 0.8-1.5 0.24-1.5-0.55 0-1.56 0.68-2.24 1.5-0.7 0.84-0.81 1.5-0.25 1.5 0.55 0 1.56-0.67 2.25-1.5zm47-0.39c0-0.49-0.74-1.18-1.65-1.52-1.37-0.53-1.43-0.38-0.37 0.89 1.44 1.74 2.02 1.92 2.02 0.63zm57.71-2.5c8.29-2.93 10.43-4.5 10.1-7.41-0.24-2.05-1.61-3.46-5.77-5.94-6.36-3.8-7.03-3.93-6.34-1.3 1.12 4.31-8.27 14.04-13.56 14.04-3.89 0-7.97-2.85-10.67-7.45-1.74-2.96-3.08-4.25-4.06-3.87-1.56 0.59-3.79 4.05-3.87 5.98-0.05 1.42-4.87 5.32-6.7 5.42-1.01 0.06-1.03 0.21-0.09 0.59 0.68 0.27 3.28-0.28 5.77-1.23 4.35-1.66 7.45-1.27 4.47 0.56-1.25 0.78-1.24 0.96 0.03 1.37 0.81 0.26 2.15 0.73 2.98 1.04 2.71 1.02 23.55-0.34 27.71-1.8zm45.47-2.36c4.29-2.06 7.8-4.02 7.81-4.35 0.01-1.19-10.4 2.12-13.66 4.34-3.09 2.11-4.26 3.76-2.64 3.76 0.38 0 4.2-1.68 8.49-3.75zm-14.64 1.69c0.92-1.49-0.15-2.3-2.06-1.57-0.89 0.34-1.33 1.07-0.99 1.63 0.81 1.31 2.22 1.28 3.05-0.06zm-274.17-5.71c-0.596-0.95-1.936-1.89-2.977-2.09-1.81-0.35-1.816-0.28-0.143 1.58 0.962 1.07 1.75 2.56 1.75 3.31 0 1.09 0.257 1.12 1.227 0.15 0.903-0.91 0.94-1.69 0.143-2.95zm7.634-0.76c0-1.61-2.67-3.14-3.69-2.11-0.712 0.71 1.55 3.64 2.81 3.64 0.48 0 0.88-0.68 0.88-1.53zm281.04-2.09c2.77-1.99 4.81-3.86 4.53-4.14-0.78-0.78-9.57 1.9-9.57 2.92 0 0.49-1.13 1.4-2.5 2.03-3.21 1.46-3.21 2.81-0.01 2.81 1.38 0 4.77-1.63 7.55-3.62zm7.31-0.47c1.43-1.68 2.48-1.97 5.22-1.46 1.88 0.36 3.43 0.26 3.43-0.2 0-1.3-2.25-3.25-3.76-3.25-1.52 0-8.24 5.1-8.24 6.25 0 1.39 1.54 0.77 3.35-1.34zm-224.98-4.41c0.42-1.92 0.34-2.46-0.23-1.5-0.48 0.83-1.17 2.85-1.52 4.5-0.42 1.92-0.34 2.46 0.23 1.5 0.48-0.82 1.17-2.85 1.52-4.5zm200.47-0.14c1.52 1.38 2.33 1.11 8.59-2.92 8.63-5.55 8.3-5.14 5.29-6.52-2.24-1.01-3.24-0.72-8.38 2.5-9.06 5.66-9.7 6.26-8.79 8.29 0.71 1.59 0.84 1.53 1.2-0.54 0.37-2.12 0.56-2.19 2.09-0.81zm-93.34 0.64c-0.34-0.55-1.07-1-1.62-1s-0.72 0.45-0.38 1 1.06 1 1.61 1 0.73-0.45 0.39-1zm52.88-0.87c1.63-1.8 1.54-1.87-2.34-1.77-4.35 0.12-5.08 0.94-2.29 2.56 2.39 1.4 2.7 1.35 4.63-0.79zm57.45-2.13c3.86-2.4 4.2-2.88 2.65-3.74-1.35-0.76-2.91-0.29-6.63 2.03-2.67 1.66-5.41 3.68-6.09 4.5-1.97 2.37 4.77 0.51 10.07-2.79zm19.5 1.18c-0.6-2.29-6.56-5.99-7.09-4.4-0.21 0.61-1.09 0.84-1.97 0.5-1.07-0.41-1.36-0.22-0.88 0.56 0.41 0.65 1.74 0.92 3.01 0.6 1.71-0.43 2.7 0.07 3.96 2 1.95 2.97 3.67 3.4 2.97 0.74zm-48.33-0.18c0-0.55-0.48-1-1.06-1-0.59 0-0.78 0.45-0.44 1s0.81 1 1.05 1c0.25 0 0.45-0.45 0.45-1zm8.33-2.32c2.84-1.83 6.5-4.15 8.13-5.17 2.89-1.78 2.91-1.86 0.84-2.78-3.58-1.6-17.16 6.6-15.99 9.65 0.84 2.18 1.07 2.13 7.02-1.7zm29.02 1.15c-1.5-0.73-2.71-0.71-4 0.04-1.54 0.89-1.18 1.07 2.15 1.04 3.49-0.04 3.72-0.17 1.85-1.08zm-34.09-4.84c6.55-3.77 9.24-5.81 8.56-6.5-0.54-0.54-13.27 6.56-15.18 8.47-2.08 2.08 1.37 1.05 6.62-1.97zm-266.14-0.46c4.394-1.93 14.126-8.79 14.636-10.33 0.23-0.66-0.49-1.2-1.61-1.2-1.99 0-4.4 1.83-5.88 4.48-0.427 0.75-3.448 2.98-6.715 4.95-6.135 3.69-6.339 4.69-0.431 2.1zm299.75 0.58c1.03-0.66 0.44-1.5-2.49-3.49-4.29-2.92-6.59-3.27-8.25-1.27-0.87 1.04-0.56 1.59 1.36 2.47 1.37 0.62 3.18 0.86 4.03 0.53 0.86-0.32 1.49-0.2 1.4 0.28-0.46 2.49 1.3 3.15 3.95 1.48zm-37.5-2.69c4.79-2.68 5.92-4.42 2.86-4.42-2.42 0-9.43 4.88-8.7 6.06 0.77 1.25 0.55 1.31 5.84-1.64zm124.63-0.31c0-2.12-9.26-10.91-14.16-13.45l-5.34-2.77 3.5 2.76c1.92 1.52 5.97 5.33 9 8.46 5.43 5.62 7 6.75 7 5zm-98.59-3.71c1.83-0.7 1.14-2.4-0.97-2.4-0.8 0-1.44 0.68-1.44 1.5 0 1.69 0.18 1.75 2.41 0.9zm-38.92-7.23c-0.31-0.31-2.01 0.94-3.78 2.78l-3.21 3.34 3.77-2.78c2.08-1.53 3.53-3.04 3.22-3.34zm26.92 2.81c1.61-1.64 2.62-3.28 2.25-3.64-0.68-0.69-6.59 4.57-6.64 5.91-0.05 1.47 1.52 0.66 4.39-2.27zm7.36 0.21c0.6-1.8-1.47-1.42-2.17 0.4-0.37 0.97-0.15 1.43 0.58 1.19 0.66-0.22 1.37-0.94 1.59-1.59zm-9.77-6.38c0-1.31-2.28-0.49-2.78 1.01-0.24 0.73 0.22 0.95 1.19 0.58 0.87-0.34 1.59-1.05 1.59-1.59zm108.86-21.68c0.91-0.59-0.88-1.27-5.5-2.07-8.36-1.44-18.36-5.73-18.36-7.86 0-0.85-0.61-2.25-1.35-3.12-2.09-2.45-4.82-13.67-5.4-22.25l-0.54-7.78-3.28 2.73c-2.92 2.42-3.3 3.31-3.36 7.93-0.09 6.01 1.56 14.6 3.54 18.48 0.75 1.47 3.85 5.36 6.89 8.64l5.51 5.96 10.24 0.11c5.64 0.06 10.86-0.29 11.61-0.77zm-353.61-11.77c4.47-2.29 3.16-2.36-3.25-0.2-3.3 1.12-6 2.25-6 2.52 0 0.78 6.24-0.79 9.25-2.32zm72.78-11.57c5.74-2.81 11.02-6.23 13.4-8.69 4.58-4.73 4.2-6.44-0.62-2.77-8.26 6.3-23.36 11.55-38.18 13.29-5.58 0.65-5.75 0.76-3.5 2.06 1.65 0.96 4.96 1.28 10.9 1.05 7.8-0.29 9.37-0.72 18-4.94zm-76.51-4.8c2.82-1.74 6.14-6.7 6.93-10.36 0.14-0.62 1.22-3.23 2.41-5.79 1.19-2.57 2.61-7.07 3.16-10 2.48-13.19 6.01-18.7 16.32-25.47 4.08-2.68 8.25-5.42 9.28-6.1 1.65-1.088 1.51-1.166-1.12-0.651-4.34 0.851-16.72 6.841-18.64 9.021-2.55 2.9-6.47 10.97-10.38 21.36-4.39 11.68-9.03 22.44-11.53 26.75-2.18 3.77-1.11 4.13 3.57 1.24zm85.05-10.48c5.18-3.03 10.43-7.36 10.43-8.59 0-1.82-2.34-0.84-6.11 2.56-2.11 1.91-7.01 5.07-10.87 7.01-3.86 1.95-7.02 3.71-7.02 3.93 0 0.88 9.63-2.6 13.57-4.91zm-28.57 3.55c5.89-1.05 3.62-1.62-8.5-2.12-6.08-0.25-8.55 1.02-4.31 2.21 3.15 0.89 7.44 0.86 12.81-0.09zm19-8.06c4.26-1.22 6.66-2.67 5.81-3.52-0.35-0.34-3.71 0.51-7.47 1.89-6.85 2.53-5.65 3.71 1.66 1.63zm-8.8-4.07c5.33-1.63 9.97-3.4 10.31-3.95 1.28-2.07-2.77-2.1-11.56-0.07-5.01 1.15-11.95 2.09-15.42 2.09-6.45 0-7.53 0.68-7.53 4.69 0 2.27 12.19 0.88 24.2-2.76zm-27.45-2.51c-0.96-0.95-2.87 0.59-2.16 1.74 0.42 0.68 0.98 0.67 1.7-0.05 0.59-0.59 0.79-1.35 0.46-1.69zm-18.31-6.47c1.48-3.31 2.51-6.56 2.28-7.23-0.42-1.22-5.8 8.64-7.24 13.28-1.46 4.7 2.06 0.41 4.96-6.05zm91.32 0.8c2.55-1.78 6-4.01 7.68-4.95 5.42-3.03 0.27-1.83-6.43 1.5-3.65 1.82-6.64 3.99-6.83 4.97-0.46 2.41 0.28 2.21 5.58-1.52zm134.24-1.75c0-0.55-0.79-0.99-1.75-0.98-1.5 0.01-1.54 0.16-0.25 0.98 1.88 1.22 2 1.22 2 0zm-78.6-9.81c-2.15-1.87-4.87-4.05-6.05-4.85-2.82-1.88-15.81-3.02-16.77-1.47-0.48 0.78 0.62 1.13 3.48 1.13 4.4 0 13.72 4.12 19.39 8.57 4.63 3.62 4.57 0.67-0.05-3.38zm48.09 2.89c-2.2-0.98-5.13-2.12-6.5-2.54-2.23-0.67-2.34-0.59-0.99 0.78 1.47 1.52 7.07 3.49 10 3.52 0.82 0.01-0.31-0.78-2.51-1.76zm-111.49-7.08c0.82-0.53 1.05-0.97 0.5-0.97s-1.68 0.44-2.5 0.97c-0.83 0.54-1.05 0.97-0.5 0.97s1.67-0.43 2.5-0.97zm79-1.34c0-0.73-1.24-1.9-2.75-2.58l-2.75-1.25 2.42 2.59c2.78 2.96 3.08 3.08 3.08 1.24zm-105.27-12.26c-0.34-0.33-1.2-0.37-1.92-0.08-0.8 0.32-0.56 0.56 0.6 0.61 1.06 0.04 1.65-0.2 1.32-0.53zm-29.82-4.036c1.01-0.866-3.56-0.228-4.91 0.686-1.1 0.741-0.7 0.834 1.5 0.344 1.65-0.369 3.18-0.833 3.41-1.03zm46.72-1.055c-0.7-0.701-7.63 0.843-7.63 1.7 0 0.431 1.81 0.322 4.03-0.242 2.22-0.563 3.84-1.219 3.6-1.458zm-65.63 0.254c0-0.792-0.45-1.719-1-2.059s-1-0.403-1-0.14c0 0.262-0.28 1.189-0.61 2.059-0.4 1.038-0.06 1.581 1 1.581 0.88 0 1.61-0.648 1.61-1.441zm37.3-1.717c2.64-0.587 4.58-1.291 4.31-1.566-0.76-0.755-17.04 1.737-18.68 2.86-1.68 1.148 6.82 0.383 14.37-1.294zm211.7 0.846c0-0.722-2.71-5.284-6.03-10.137-13.65-20.016-23.58-29.978-42.97-43.143-18.57-12.603-36.95-19.477-45.96-17.19-2.23 0.564-4.04 1.396-4.04 1.849 0 0.454 3.11 2.462 6.92 4.463 3.89 2.044 10.47 6.934 15.02 11.158 10.73 9.97 25.8 29.546 30.08 39.062 1.64 3.655 2.33 4.25 4.96 4.25h3.05l-2.41-4.75c-1.33-2.612-4.04-7.157-6.02-10.1-3.91-5.799-4.06-6.15-2.69-6.15 1.18 0 7.1 8.101 10.59 14.5 2.9 5.308 5.5 8.585 5.5 6.932 0-1.038-5.69-11.722-9.02-16.932-4.02-6.29-4.05-6.857-0.14-2.56 2.22 2.442 6.37 8.404 9.21 13.25 4.75 8.087 7.95 11.034 7.95 7.324 0-0.818-3.52-6.105-7.81-11.75-4.3-5.645-9.92-13.034-12.5-16.42-2.58-3.385-4.69-6.375-4.69-6.643 0-0.267 0.69-0.753 1.54-1.079 1.02-0.39 3.94 1.704 8.57 6.143 6.96 6.67 11.32 9.726 7.3 5.123-3.58-4.105-9.86-11.109-11.16-12.455-1.67-1.724-1.59-2.727 0.14-1.732 2.45 1.409 15.86 13.575 22.93 20.799 6.28 6.424 16.68 20.279 16.68 22.233 0 1.332 3.03 5.267 4.05 5.267 0.52 0 0.95-0.59 0.95-1.312zm-236.33-5.601c7.18-13.581 27.46-33.45 40.85-40.031 2.74-1.344 8.13-4.983 11.98-8.086s8.25-6.451 9.78-7.441c5.02-3.248 2.16-2.642-6.66 1.412-4.76 2.191-8.92 4.659-9.23 5.484-0.32 0.826-3.13 2.451-6.24 3.613-10.55 3.94-26.53 15.296-38.96 27.687-7.63 7.615-10.19 12.006-10.19 17.47 0 3.152 0.12 3.057 3.62-2.869 2-3.371 6.82-9.21 10.73-12.977 3.9-3.767 6.09-5.695 4.87-4.284-1.22 1.41-2.22 3.019-2.22 3.575 0 0.557-1.18 2.103-2.62 3.436-3.24 3.012-9.85 12.623-10.84 15.766-1.32 4.185 2.56 2.102 5.13-2.755zm8.09-2.087c1.34-2.475 3.96-6.75 5.82-9.5 6.45-9.521 6.6-9.974 1.52-4.5-5.23 5.625-13.1 16.582-13.1 18.23 0 2.418 3.59-0.221 5.76-4.23zm6.24 1.246c0-2.389 6.34-12.712 12.88-20.955l5.39-6.791-5.21 5c-5.34 5.131-12.51 14.52-15.42 20.201-2.08 4.059-2.06 4.299 0.36 4.299 1.24 0 2-0.666 2-1.754zm182 1.361c0-0.216-0.68-0.652-1.5-0.968-0.83-0.317-1.5-0.14-1.5 0.393 0 0.532 0.67 0.968 1.5 0.968 0.82 0 1.5-0.177 1.5-0.393zm22-0.441c0-1.449-8.01-12.341-15.57-21.164-12.32-14.385-14.28-16.488-14.86-15.913-0.52 0.528 2.15 3.833 12.53 15.453 5.39 6.034 12.9 15.836 12.9 16.834 0 0.382 0.72 1.804 1.61 3.16 1.58 2.415 3.39 3.283 3.39 1.63zm-193.23-6.416c3.15-5.573 16.69-20.635 15.52-17.256-0.38 1.097-2.89 4.697-5.57 8-6.51 8.032-8.05 11.345-2.2 4.756 4.32-4.873 6.48-6.36 6.48-4.473 0 0.428-1.86 3.24-4.12 6.25-3.46 4.606-3.84 5.529-2.35 5.825 1.05 0.211 2.73-0.887 4.18-2.75 1.34-1.706 3.07-3.102 3.86-3.102 1.7 0 1.76 0.502 0.39 3.066-0.81 1.506-0.71 1.934 0.44 1.934 0.81 0 1.73-0.407 2.04-0.906 0.31-0.498 1.42-0.68 2.47-0.405 1.06 0.276 9.05-0.188 17.75-1.032 32.19-3.119 48.17-3.933 67.66-3.448 21.41 0.532 20.34 0.795 18.18-4.459-1.27-3.082 0.9-1.829 3.94 2.274 2.59 3.503 6.56 5.417 6.56 3.164 0-1.398-3.94-9.029-5-9.683-0.55-0.343-1-1.557-1-2.699 0-1.859 0.23-1.774 2.22 0.809 1.23 1.587 2.69 3.368 3.25 3.959 0.57 0.59 1.92 2.728 3 4.75 1.15 2.133 2.73 3.676 3.77 3.676 1.67 0 1.64-0.3-0.37-4.25-1.18-2.337-3.89-6.869-6.02-10.07-2.12-3.202-3.85-6.069-3.85-6.373 0-1.272 3.48 2.506 7.35 7.965 2.28 3.219 5.43 7.652 7 9.851s3.12 3.741 3.43 3.426c1.2-1.201-8.71-16.482-15.11-23.284-4.57-4.87-2.66-4.871 2.4-0.001 6.03 5.797 11.12 12.162 15.37 19.209 1.95 3.25 3.55 5.261 3.55 4.469 0-1.746-6.09-12-10.23-17.238-1.65-2.088-2.69-4.112-2.3-4.498 0.38-0.386 1.23-0.028 1.87 0.796s2.03 2.173 3.08 2.998c4.23 3.313-0.41-2.82-7.66-10.141-13.11-13.232-29.67-24.009-41.86-27.237-2.97-0.787-6.66-1.923-8.21-2.526-3.98-1.549-17.78-1.399-20.21 0.22-1.09 0.723-3.89 1.866-6.22 2.54-2.34 0.673-4.25 1.713-4.25 2.309 0 0.684-1.17 0.852-3.16 0.454-2.47-0.494-4.52 0.117-9.44 2.822-15.72 8.642-31.27 23.039-40.57 37.56-5.03 7.859-9.83 16.417-9.83 17.53 0 1.348 1.1-0.045 3.77-4.781zm72.73-11.36l-4-5.338-5.75-0.026c-5.89-0.026-6.94-0.796-4.2-3.071 3.42-2.838 3.71-4.913 1.17-8.269-1.33-1.752-2.98-4.255-3.67-5.563-1.73-3.256-0.17-4.088 7.68-4.107 6.22-0.016 6.23-0.02 8.2-3.892 2.9-5.68 4.69-5.908 9.49-1.209 4.03 3.938 4.18 3.991 12.33 4.226 4.53 0.131 8.25 0.561 8.25 0.954 0 0.394-1.58 2.601-3.5 4.905-1.93 2.304-3.5 4.398-3.5 4.654 0 0.255 1.4 2.214 3.12 4.354 4.62 5.749 3.55 7.331-4.4 6.479l-6.28-0.672-4.44 5.571c-2.45 3.064-4.91 5.744-5.48 5.957-0.56 0.212-2.82-2.017-5.02-4.953zm8.1-3.14c1.98-2.605 1.7-3.25-1.44-3.25-3.77 0-4.52 0.95-2.51 3.169 2.04 2.258 2.3 2.263 3.95 0.081zm5.74-8.079c3.75-3.352 3.98-5.062 1.17-8.735-2.54-3.331-2.83-3.436-9.54-3.436h-6.93l-2.06 4.035c-2.11 4.133-2 4.998 1.1 8.465 1.51 1.684 2.79 1.946 8.1 1.66 4.05-0.219 6.98-0.932 8.16-1.989zm8.66-0.171c-0.9-1.681-4-2.907-4-1.581 0 0.23-0.28 1.13-0.61 2-0.48 1.235 0.08 1.581 2.53 1.581 2.84 0 3.04-0.197 2.08-2zm-28.04-10.75c0.02-0.768-1.31-1.25-3.46-1.25-4.08 0-4.28 0.545-1.35 3.665 2.01 2.143 2.24 2.181 3.47 0.565 0.72-0.951 1.33-2.292 1.34-2.98zm28.82-0.054c1.42-2.141 1.36-2.196-2.66-2.196-4.56 0-4.92 0.467-2.45 3.196 1.99 2.194 3.14 1.968 5.11-1zm-15.78-5.541c0-0.739-0.87-2.127-1.92-3.083-1.83-1.656-1.98-1.643-3 0.28-1.72 3.213-1.29 4.148 1.92 4.148 1.84 0 3-0.517 3-1.345zm-1.25 43.629c-1.52-0.229-3.99-0.229-5.5 0-1.52 0.229-0.28 0.417 2.75 0.417 3.02 0 4.26-0.188 2.75-0.417zm80.2-8.381c-1.15-2.253-2.31-3.884-2.57-3.624-0.63 0.637 2.91 7.666 3.89 7.697 0.42 0.013-0.17-1.819-1.32-4.073zm-60.95-58.903c-1.94-1.253-3-1.253-3 0 0 0.55 1.01 0.993 2.25 0.985 1.82-0.012 1.96-0.201 0.75-0.985zm-6.64-4.211c-0.24-0.391-2.11-1.012-4.15-1.38s-4.24-1.087-4.89-1.598c-0.76-0.602-2.61-0.197-5.25 1.15-2.24 1.144-4.07 2.206-4.07 2.359 0 0.154 4.23 0.257 9.4 0.23s9.2-0.37 8.96-0.761zm71.3 535.2c-3.21-2.74-6.91-5.26-8.24-5.59-1.33-0.34-2.13-1.07-1.78-1.63 0.6-0.97 10.89-0.41 16.11 0.89 3.25 0.81 2.76 2.34-0.75 2.34-1.65 0-3 0.37-3 0.82 0 0.44 1.35 2.1 3 3.68 1.65 1.59 3 3.24 3 3.69 0 1.92-2.89 0.47-8.34-4.2zm-195.23-0.08c-0.35-0.57-0.45-1.22-0.23-1.45 0.56-0.55 13.51-3.28 23.8-5.01 11.99-2.01 38-3.11 38-1.6 0 0.63-1.13 1.21-2.5 1.28-1.38 0.07-2.84 0.21-3.25 0.32-0.42 0.11-4.8 0.53-9.75 0.94-9.41 0.78-26.44 3.05-34.37 4.58-9.46 1.82-11.07 1.95-11.7 0.94z"/>
 <metadata>
  <rdf:RDF>
   <cc:Work>
    <dc:format>image/svg+xml</dc:format>
    <dc:type rdf:resource="http://purl.org/dc/dcmitype/StillImage"/>
    <cc:license rdf:resource="http://creativecommons.org/licenses/publicdomain/"/>
    <dc:publisher>
     <cc:Agent rdf:about="http://openclipart.org/">
      <dc:title>Openclipart</dc:title>
     </cc:Agent>
    </dc:publisher>
   </cc:Work>
   <cc:License rdf:about="http://creativecommons.org/licenses/publicdomain/">
    <cc:permits rdf:resource="http://creativecommons.org/ns#Reproduction"/>
    <cc:permits rdf:resource="http://creativecommons.org/ns#Distribution"/>
    <cc:permits rdf:resource="http://creativecommons.org/ns#DerivativeWorks"/>
   </cc:License>
  </rdf:RDF>
 </metadata>
</svg>